<?xml version="1.0" encoding="UTF-8"?>
<svg version="1.1" xmlns="http://www.w3.org/2000/svg" width="112" height="112">
<path d="M0 0 C3.58444803 2.77704725 6.81789476 5.77362199 10 9 C10.64839844 9.63808594 11.29679687 10.27617187 11.96484375 10.93359375 C23.45798062 23.03030892 25.6803153 37.24522795 25.375 53.234375 C24.84497566 64.87219525 20.20077352 73.97459609 13 83 C12.57460937 83.61101562 12.14921875 84.22203125 11.7109375 84.8515625 C4.62195634 94.37602185 -8.48900031 101.17171165 -20 103 C-37.32308565 104.68206057 -51.83898674 102.06737794 -66.05859375 91.51171875 C-80.0764078 79.54165974 -85.30555941 64.91526104 -87.31640625 47.21484375 C-88.00903831 33.4739174 -80.7587742 19.57202746 -72.15625 9.31640625 C-53.30879332 -10.93095211 -23.32684727 -14.88259327 0 0 Z M-34 9 C-33 11 -33 11 -33 11 Z M-31 9 C-30 11 -30 11 -30 11 Z M-22 10 C-21.67 10.66 -21.34 11.32 -21 12 C-20.67 11.34 -20.34 10.68 -20 10 C-20.66 10 -21.32 10 -22 10 Z M-19 11 C-18.67 11.66 -18.34 12.32 -18 13 C-17.67 12.34 -17.34 11.68 -17 11 C-17.66 11 -18.32 11 -19 11 Z M-25 11 C-25 11.66 -25 12.32 -25 13 C-26.02480469 12.97679688 -27.04960938 12.95359375 -28.10546875 12.9296875 C-29.46613851 12.91091964 -30.8268162 12.89272053 -32.1875 12.875 C-32.86103516 12.85824219 -33.53457031 12.84148438 -34.22851562 12.82421875 C-38.33694298 12.78413653 -41.25983852 13.37265369 -45 15 C-45.66 14.67 -46.32 14.34 -47 14 C-47 14.66 -47 15.32 -47 16 C-47.74121094 16.25394531 -48.48242188 16.50789063 -49.24609375 16.76953125 C-56.10705849 19.83506869 -60.82236095 26.37991866 -64 33 C-64 33.66 -64 34.32 -64 35 C-58.06 35 -52.12 35 -46 35 C-46.33 33.68 -46.66 32.36 -47 31 C-46.34 31 -45.68 31 -45 31 C-45 30.34 -45 29.68 -45 29 C-43.7315625 29.0928125 -43.7315625 29.0928125 -42.4375 29.1875 C-38.87806399 29.19514866 -38.87806399 29.19514866 -35.4375 27.4375 C-31.63769216 25.84848945 -30.82047464 26.0105657 -27 27 C-26.14019531 27.21398437 -25.28039063 27.42796875 -24.39453125 27.6484375 C-23.54246094 27.88820313 -22.69039062 28.12796875 -21.8125 28.375 C-20.95269531 28.60960938 -20.09289062 28.84421875 -19.20703125 29.0859375 C-17 30 -17 30 -15 33 C-15 33.66 -15 34.32 -15 35 C-9.06 35 -3.12 35 3 35 C0.20185276 26.60555828 -4.96311845 21.23674906 -12 16 C-12.66 16 -13.32 16 -14 16 C-14.495 15.01 -14.495 15.01 -15 14 C-15 14.66 -15 15.32 -15 16 C-17.35171131 15.40138258 -19.6859378 14.73075648 -22 14 C-22.495 13.01 -22.495 13.01 -23 12 C-23.66 11.67 -24.32 11.34 -25 11 Z M-36.1875 29.5 C-37.26064453 29.91765625 -37.26064453 29.91765625 -38.35546875 30.34375 C-38.89816406 30.5603125 -39.44085938 30.776875 -40 31 C-40 31.33 -40 31.66 -40 32 C-33.73 32 -27.46 32 -21 32 C-26.34500758 28.43666161 -30.10491212 27.10685067 -36.1875 29.5 Z M-39 34 C-39 34.33 -39 34.66 -39 35 C-33.72 35 -28.44 35 -23 35 C-23 34.67 -23 34.34 -23 34 C-28.28 34 -33.56 34 -39 34 Z M-63 37 C-63 37.33 -63 37.66 -63 38 C-57.39 38 -51.78 38 -46 38 C-46 37.67 -46 37.34 -46 37 C-51.61 37 -57.22 37 -63 37 Z M-16 37 C-16 37.33 -16 37.66 -16 38 C-11.71 38 -7.42 38 -3 38 C-3 37.67 -3 37.34 -3 37 C-7.29 37 -11.58 37 -16 37 Z M-61 40 C-60 42 -60 42 -60 42 Z M-56 40 C-55 42 -55 42 -55 42 Z M-16 40 C-16 45.28 -16 50.56 -16 56 C-15.67 56 -15.34 56 -15 56 C-15 50.72 -15 45.44 -15 40 C-15.33 40 -15.66 40 -16 40 Z M-6 40 C-5 42 -5 42 -5 42 Z M-1 40 C0 42 0 42 0 42 Z M-46 41 C-46 45.95 -46 50.9 -46 56 C-45.67 56 -45.34 56 -45 56 C-45 51.05 -45 46.1 -45 41 C-45.33 41 -45.66 41 -46 41 Z M-66 43 C-67.41577477 44.18424326 -67.41577477 44.18424326 -67.0625 47.5625 C-67.041875 48.696875 -67.02125 49.83125 -67 51 C-66.67 51 -66.34 51 -66 51 C-65.67 48.36 -65.34 45.72 -65 43 C-65.33 43 -65.66 43 -66 43 Z M-61 43 C-60 45 -60 45 -60 45 Z M-56 43 C-55 45 -55 45 -55 45 Z M-51 43 C-50 45 -50 45 -50 45 Z M-11 43 C-10 45 -10 45 -10 45 Z M-6 43 C-5 45 -5 45 -5 45 Z M-1 43 C0 45 0 45 0 45 Z M4 43 C3.83318891 45.91652174 3.83318891 45.91652174 4 49 C4.66 49.66 5.32 50.32 6 51 C6 48.69 6 46.38 6 44 C5.34 43.67 4.68 43.34 4 43 Z M-77 45 C-76.67 46.65 -76.34 48.3 -76 50 C-75.01 50 -74.02 50 -73 50 C-72.67 49.01 -72.34 48.02 -72 47 C-72.33 46.34 -72.66 45.68 -73 45 C-74.32 45 -75.64 45 -77 45 Z M13 45 C12.67 46.32 12.34 47.64 12 49 C13.32 49 14.64 49 16 49 C16 47.68 16 46.36 16 45 C15.01 45 14.02 45 13 45 Z M-61 47 C-60 49 -60 49 -60 49 Z M-56 47 C-55 49 -55 49 -55 49 Z M-51 47 C-50 49 -50 49 -50 49 Z M-11 47 C-10 49 -10 49 -10 49 Z M-6 47 C-5 49 -5 49 -5 49 Z M-1 47 C0 49 0 49 0 49 Z M-33 50 C-33 51.98 -33 53.96 -33 56 C-31.35 56 -29.7 56 -28 56 C-28 54.02 -28 52.04 -28 50 C-29.65 50 -31.3 50 -33 50 Z M-66 51 C-65 53 -65 53 -65 53 Z M-61 51 C-60 53 -60 53 -60 53 Z M-56 51 C-55 53 -55 53 -55 53 Z M-51 51 C-50 53 -50 53 -50 53 Z M-11 51 C-10 53 -10 53 -10 53 Z M-6 51 C-5 53 -5 53 -5 53 Z M-1 51 C0 53 0 53 0 53 Z M4 51 C5 53 5 53 5 53 Z M-64 60 C-60.95072621 69.14782138 -56.25931131 75.14029506 -47.734375 79.77734375 C-37.35554088 84.41816529 -27.53457464 85.20845995 -16.8125 81.3125 C-8.24072047 77.50885774 -2.39224427 72.35894238 2 64 C2.33 62.68 2.66 61.36 3 60 C-2.28 60 -7.56 60 -13 60 C-12.01 60.33 -11.02 60.66 -10 61 C-10 61.99 -10 62.98 -10 64 C-12.30820508 65.15410254 -13.60784276 65.1210297 -16.17431641 65.11352539 C-17.46542831 65.11341209 -17.46542831 65.11341209 -18.78262329 65.11329651 C-19.71287323 65.10813522 -20.64312317 65.10297394 -21.6015625 65.09765625 C-22.55316254 65.0962413 -23.50476257 65.09482635 -24.48519897 65.09336853 C-27.53183097 65.08776012 -30.57839013 65.07520619 -33.625 65.0625 C-35.68749894 65.05748608 -37.74999903 65.05292299 -39.8125 65.04882812 C-44.87502817 65.03778796 -49.93750173 65.02051767 -55 65 C-55 64.34 -55 63.68 -55 63 C-53.68 63 -52.36 63 -51 63 C-51 62.34 -51 61.68 -51 61 C-50.01 60.67 -49.02 60.34 -48 60 C-53.28 60 -58.56 60 -64 60 Z " fill="#145B9A" transform="translate(87,9)"/>
<path d="M0 0 C3.58444803 2.77704725 6.81789476 5.77362199 10 9 C10.64839844 9.63808594 11.29679687 10.27617187 11.96484375 10.93359375 C21.77170578 21.25547698 25.35684958 33.59174672 25.25 47.5 C25.26160156 49.01013672 25.26160156 49.01013672 25.2734375 50.55078125 C25.25890881 56.09347516 24.85240409 60.76622337 23 66 C22.31292445 63.50935112 22 61.62113708 22 59 C21.78085938 59.67804688 21.56171875 60.35609375 21.3359375 61.0546875 C15.75781173 77.42625989 6.53114038 88.66013451 -8.96484375 96.5 C-15.37160194 99.20946602 -15.37160194 99.20946602 -19 98 C-19 97.67 -19 97.34 -19 97 C-19.66 97 -20.32 97 -21 97 C-21 96.34 -21 95.68 -21 95 C-19.91460937 94.62488281 -18.82921875 94.24976562 -17.7109375 93.86328125 C-16.26538918 93.34701399 -14.82008969 92.83004963 -13.375 92.3125 C-12.66214844 92.06822266 -11.94929688 91.82394531 -11.21484375 91.57226562 C-6.25613739 89.77530323 -2.87339561 87.58625114 1 84 C0.01 83.0409375 0.01 83.0409375 -1 82.0625 C-3 80 -3 80 -3 79 C-1.35 79 0.3 79 2 79 C2.33 79.99 2.66 80.98 3 82 C3.66 82 4.32 82 5 82 C5.27070312 81.42121094 5.54140625 80.84242187 5.8203125 80.24609375 C7.00220886 77.99579439 8.36359608 76.10250374 9.875 74.0625 C13.98012008 68.01549714 17 60.37735858 17 53 C16.01 53 15.02 53 14 53 C14.495 52.01 14.495 52.01 15 51 C13.35 51.33 11.7 51.66 10 52 C9.67 51.01 9.34 50.02 9 49 C8.99742188 49.58265625 8.99484375 50.1653125 8.9921875 50.765625 C8.52838613 60.59821404 4.14532686 70.17224323 -3 77 C-6.54054125 79.58001586 -10.18696816 81.84599057 -14 84 C-14.62519531 84.36609375 -15.25039062 84.7321875 -15.89453125 85.109375 C-23.57780433 88.78624609 -34.35457492 88.18237629 -42.453125 86.12109375 C-54.27362537 81.52928399 -62.13558513 74.05369743 -68.09765625 62.95703125 C-71.22184912 55.44443724 -71.55485571 43.66456714 -69 36 C-70.98 35.34 -72.96 34.68 -75 34 C-74.67 32.68 -74.34 31.36 -74 30 C-72.02 30 -70.04 30 -68 30 C-68 29.01 -68 28.02 -68 27 C-67.41476563 26.91492187 -66.82953125 26.82984375 -66.2265625 26.7421875 C-63.36918834 25.78972945 -62.28898022 24.42683524 -60.375 22.125 C-59.78460938 21.42632813 -59.19421875 20.72765625 -58.5859375 20.0078125 C-56.86406516 17.88325412 -56.86406516 17.88325412 -55 15 C-57.64 15 -60.28 15 -63 15 C-62.34 13.68 -61.68 12.36 -61 11 C-60.67 11.66 -60.34 12.32 -60 13 C-59.38125 12.505 -58.7625 12.01 -58.125 11.5 C-56 10 -56 10 -54 10 C-53.67 10.66 -53.34 11.32 -53 12 C-50.97536745 12.65213292 -50.97536745 12.65213292 -49 13 C-49 13.66 -49 14.32 -49 15 C-50.5390625 16.2265625 -50.5390625 16.2265625 -52.625 17.625 C-58.90576783 22.18272533 -62.82791098 27.9509133 -66 35 C-64.948125 34.89171875 -64.948125 34.89171875 -63.875 34.78125 C-58.21692462 34.22774263 -52.68411059 33.89275263 -47 34 C-47 33.01 -47 32.02 -47 31 C-46.34 31 -45.68 31 -45 31 C-45 30.34 -45 29.68 -45 29 C-43.783125 28.71125 -42.56625 28.4225 -41.3125 28.125 C-38.80997649 27.51258668 -36.68118351 26.8591276 -34.3125 25.8125 C-30.19252571 24.36494146 -25.91064634 26.2218151 -21.8125 27.375 C-20.95269531 27.60960937 -20.09289062 27.84421875 -19.20703125 28.0859375 C-17 29 -17 29 -15 32 C-15.66 32 -16.32 32 -17 32 C-17 33.32 -17 34.64 -17 36 C-22.94 36 -28.88 36 -35 36 C-34.67 36.33 -34.34 36.66 -34 37 C-31.69 37 -29.38 37 -27 37 C-27 43.27 -27 49.54 -27 56 C-26.34 56 -25.68 56 -25 56 C-25 49.73 -25 43.46 -25 37 C-23.02 37 -21.04 37 -19 37 C-19 43.6 -19 50.2 -19 57 C-17.02 57.99 -17.02 57.99 -15 59 C-15.495 60.485 -15.495 60.485 -16 62 C-20.07496103 62.09893453 -24.14945656 62.17149694 -28.2253418 62.21972656 C-29.61153338 62.23983275 -30.99764025 62.26712245 -32.38354492 62.30175781 C-34.37641906 62.35031225 -36.36991389 62.37083972 -38.36328125 62.390625 C-39.56251221 62.41157227 -40.76174316 62.43251953 -41.99731445 62.45410156 C-45 62 -45 62 -46.91479492 59.97558594 C-47.2729126 59.32364258 -47.63103027 58.67169922 -48 58 C-47.01 57.67 -46.02 57.34 -45 57 C-45.33 53.37 -45.66 49.74 -46 46 C-46.66 47.65 -47.32 49.3 -48 51 C-48.60328125 50.91621094 -49.2065625 50.83242188 -49.828125 50.74609375 C-50.62734375 50.64425781 -51.4265625 50.54242188 -52.25 50.4375 C-53.03890625 50.33308594 -53.8278125 50.22867188 -54.640625 50.12109375 C-57.00532874 49.99972651 -58.7511037 50.30366743 -61 51 C-61 51.99 -61 52.98 -61 54 C-62.32 54 -63.64 54 -65 54 C-65.33 51.03 -65.66 48.06 -66 45 C-66.64812729 55.80212157 -66.17068989 63.51084151 -59.23828125 72.2109375 C-52.94618358 79.07736457 -44.98947151 83.43495552 -35.6875 84.3125 C-26.81938774 84.17939513 -16.80161364 81.33725674 -9.61328125 76.1484375 C-8 75 -8 75 -5.85546875 74.0390625 C-3.65223046 73.07872794 -3.65223046 73.07872794 -3 70 C-2.01 70 -1.02 70 0 70 C5.92825502 60.42880965 8.6743054 51.0607278 6.34765625 39.859375 C3.36067146 28.83445261 -2.18998094 22.01205599 -11 15 C-10.01 14.67 -9.02 14.34 -8 14 C-6.2109375 15.14453125 -6.2109375 15.14453125 -4.375 16.8125 C-3.76398438 17.35519531 -3.15296875 17.89789062 -2.5234375 18.45703125 C-1 20 -1 20 0 22 C3.1315587 21.10232344 3.1315587 21.10232344 6 19 C6.495 20.485 6.495 20.485 7 22 C7.99 21.67 8.98 21.34 10 21 C9.07767578 19.98679687 9.07767578 19.98679687 8.13671875 18.953125 C7.32847656 18.06109375 6.52023438 17.1690625 5.6875 16.25 C4.48673828 14.92742188 4.48673828 14.92742188 3.26171875 13.578125 C-2 7.58031088 -2 7.58031088 -2 5 C-4.35438733 3.57055055 -5.48032433 2.91338739 -8.25 3.375 C-8.8275 3.58125 -9.405 3.7875 -10 4 C-10.495 3.01 -10.495 3.01 -11 2 C-10.67 1.67 -10.34 1.34 -10 1 C-11.79199472 0.21717352 -11.79199472 0.21717352 -14 0 C-16.13344768 1.3916876 -16.13344768 1.3916876 -18 3 C-18.66 3 -19.32 3 -20 3 C-20 3.99 -20 4.98 -20 6 C-16.41672247 7.00217064 -16.41672247 7.00217064 -13 6 C-12.505 8.475 -12.505 8.475 -12 11 C-13.670625 10.2884375 -13.670625 10.2884375 -15.375 9.5625 C-20.17683359 7.73814745 -24.90272966 7.30291156 -30 7 C-30.495 5.515 -30.495 5.515 -31 4 C-30.34 4 -29.68 4 -29 4 C-28.67 3.34 -28.34 2.68 -28 2 C-28 2.66 -28 3.32 -28 4 C-27.01 3.67 -26.02 3.34 -25 3 C-24.67 2.01 -24.34 1.02 -24 0 C-26.64 0 -29.28 0 -32 0 C-32 0.66 -32 1.32 -32 2 C-32.66 2 -33.32 2 -34 2 C-34 2.99 -34 3.98 -34 5 C-33.34 5 -32.68 5 -32 5 C-32 5.66 -32 6.32 -32 7 C-33.65 7 -35.3 7 -37 7 C-37 7.66 -37 8.32 -37 9 C-37.66 8.67 -38.32 8.34 -39 8 C-38.67 7.05125 -38.34 6.1025 -38 5.125 C-36.89840809 2.22937548 -36.89840809 2.22937548 -37 0 C-49.01370808 0.96302269 -59.08542233 7.05583139 -67.27734375 15.76953125 C-70.43157644 19.85358311 -72.75298699 24.36979137 -75 29 C-75.99 29 -76.98 29 -78 29 C-78.33 31.31 -78.66 33.62 -79 36 C-79.99 36 -80.98 36 -82 36 C-81.55183066 25.91618989 -74.93528833 16.04815921 -68 9 C-55.91732346 -1.00058709 -42.80502667 -6.40525709 -27 -6 C-33.86361501 -7.59618954 -40.14554904 -6.24720085 -47 -5 C-46 -7 -46 -7 -44.3203125 -7.6328125 C-28.9765748 -11.07286757 -13.31625443 -8.49580727 0 0 Z M-36.1875 29.5 C-37.26064453 29.91765625 -37.26064453 29.91765625 -38.35546875 30.34375 C-38.89816406 30.5603125 -39.44085938 30.776875 -40 31 C-40 31.33 -40 31.66 -40 32 C-33.73 32 -27.46 32 -21 32 C-26.34500758 28.43666161 -30.10491212 27.10685067 -36.1875 29.5 Z M-39 34 C-39 34.33 -39 34.66 -39 35 C-33.72 35 -28.44 35 -23 35 C-23 34.67 -23 34.34 -23 34 C-28.28 34 -33.56 34 -39 34 Z M-63 37 C-63 37.33 -63 37.66 -63 38 C-57.39 38 -51.78 38 -46 38 C-46 37.67 -46 37.34 -46 37 C-51.61 37 -57.22 37 -63 37 Z M-61 40 C-60 42 -60 42 -60 42 Z M-56 40 C-55 42 -55 42 -55 42 Z M-61 43 C-60 45 -60 45 -60 45 Z M-56 43 C-55 45 -55 45 -55 45 Z M-51 43 C-50 45 -50 45 -50 45 Z M13 45 C12.67 46.32 12.34 47.64 12 49 C13.32 49 14.64 49 16 49 C16 47.68 16 46.36 16 45 C15.01 45 14.02 45 13 45 Z M-61 47 C-60 49 -60 49 -60 49 Z M-56 47 C-55 49 -55 49 -55 49 Z M-33 50 C-33 51.98 -33 53.96 -33 56 C-31.35 56 -29.7 56 -28 56 C-28 54.02 -28 52.04 -28 50 C-29.65 50 -31.3 50 -33 50 Z M-65 15 C-64.34 15 -63.68 15 -63 15 C-63 15.66 -63 16.32 -63 17 C-63.66 17 -64.32 17 -65 17 C-65 16.34 -65 15.68 -65 15 Z " fill="#346A84" transform="translate(87,9)"/>
<path d="M0 0 C0.33 0 0.66 0 1 0 C1.96194972 13.33369201 -1.83206909 23.57884676 -10 34 C-10.66 34.99 -11.32 35.98 -12 37 C-12.66 37 -13.32 37 -14 37 C-14.33 36.34 -14.66 35.68 -15 35 C-16.32 35 -17.64 35 -19 35 C-18.67 35.99 -18.34 36.98 -18 38 C-16.515 38.495 -16.515 38.495 -15 39 C-20.83719138 44.83719138 -27.13215097 47.59711638 -35 50 C-35.99 50 -36.98 50 -38 50 C-38 50.66 -38 51.32 -38 52 C-35.03 51.505 -35.03 51.505 -32 51 C-33.485 51.99 -33.485 51.99 -35 53 C-20.38311355 49.67077424 -10.48591874 41.00990408 -2 29 C1.29643718 23.71523563 2.87643196 18.26372919 4.2890625 12.22265625 C4.52367188 11.48917969 4.75828125 10.75570312 5 10 C5.66 9.67 6.32 9.34 7 9 C6.70794717 11.67715097 6.37449422 14.33395783 6 17 C5.91234375 17.70898438 5.8246875 18.41796875 5.734375 19.1484375 C4.57362191 26.13818981 1.09931978 31.32336993 -3 37 C-3.75410156 38.06927734 -3.75410156 38.06927734 -4.5234375 39.16015625 C-12.16002843 48.90940812 -24.85704824 56.0713389 -37 58 C-54.33204659 59.68293067 -68.79113073 57.04781606 -83.04296875 46.5390625 C-89.06243287 41.37043413 -94.3462781 35.56650963 -97 28 C-95.125 28.25 -95.125 28.25 -93 29 C-92.690625 29.66 -92.38125 30.32 -92.0625 31 C-91.711875 31.66 -91.36125 32.32 -91 33 C-88.46996149 33.65505786 -88.46996149 33.65505786 -86 34 C-86.58910156 32.89140625 -87.17820312 31.7828125 -87.78515625 30.640625 C-88.54490203 29.1774109 -89.30398206 27.71385098 -90.0625 26.25 C-90.45244141 25.52039063 -90.84238281 24.79078125 -91.24414062 24.0390625 C-91.79038086 22.97558594 -91.79038086 22.97558594 -92.34765625 21.890625 C-92.68804932 21.24125977 -93.02844238 20.59189453 -93.37915039 19.92285156 C-94.13558044 17.58008982 -93.78821819 16.29543427 -93 14 C-92.01 14 -91.02 14 -90 14 C-90.33 15.65 -90.66 17.3 -91 19 C-90.41992188 19.12375 -89.83984375 19.2475 -89.2421875 19.375 C-83.30784861 20.94182215 -81.00093244 22.84502136 -77.64453125 27.875 C-72.63714985 34.34534556 -63.92631936 39.21998112 -56 41 C-45.48134195 42.32123621 -36.33834321 41.32002583 -27 36 C-26.25234375 35.5771875 -25.5046875 35.154375 -24.734375 34.71875 C-15.84994893 28.88622601 -11.24141095 19.10359092 -9 9 C-8.65949365 7.334784 -8.32425824 5.66845602 -8 4 C-7.01 4.495 -7.01 4.495 -6 5 C-5.319375 5.165 -4.63875 5.33 -3.9375 5.5 C-2 6 -2 6 -1 7 C-0.67 4.69 -0.34 2.38 0 0 Z " fill="#124D2F" transform="translate(104,54)"/>
<path d="M0 0 C0.99 0.33 1.98 0.66 3 1 C2.67 1.66 2.34 2.32 2 3 C4.77077198 3.16774403 7.54160927 3.33423936 10.3125 3.5 C11.49102539 3.57154297 11.49102539 3.57154297 12.69335938 3.64453125 C13.8293457 3.71220703 13.8293457 3.71220703 14.98828125 3.78125 C15.68477783 3.82314453 16.38127441 3.86503906 17.09887695 3.90820312 C18.73096966 3.98700971 20.36600579 4 22 4 C22 4.66 22 5.32 22 6 C22.66 6 23.32 6 24 6 C26.41171334 15.34538919 25.2470724 25.29077093 20.46484375 33.69921875 C19.03505629 35.85235022 17.56747775 37.94553886 16 40 C15 37 15 37 15.99609375 34.73828125 C17.33072917 32.4921875 18.66536458 30.24609375 20 28 C15.71 28.33 11.42 28.66 7 29 C7 29.99 7 30.98 7 32 C8.32 32.33 9.64 32.66 11 33 C5.79739556 34.06268208 0.79846644 34.14525305 -4.484375 34.1328125 C-5.38117981 34.13376923 -6.27798462 34.13472595 -7.20196533 34.13571167 C-9.08793203 34.13638953 -10.97390112 34.13456284 -12.85986328 34.13037109 C-15.75428445 34.12499204 -18.64855222 34.1303423 -21.54296875 34.13671875 C-23.37760451 34.13605839 -25.21224017 34.13477811 -27.046875 34.1328125 C-28.34839508 34.13584885 -28.34839508 34.13584885 -29.6762085 34.13894653 C-35.77004892 34.11497554 -35.77004892 34.11497554 -38 33 C-38 32.34 -38 31.68 -38 31 C-36.68 31 -35.36 31 -34 31 C-34 30.34 -34 29.68 -34 29 C-38.29 28.67 -42.58 28.34 -47 28 C-41.24507255 38.71055942 -36.12856745 45.25955973 -24.234375 49.26953125 C-20.84579448 50.27072219 -17.43199545 51.15930947 -14 52 C-14 52.33 -14 52.66 -14 53 C-22.13955866 53.61430631 -29.10679045 51.86460589 -35.75 46.9765625 C-41.67673858 41.80830535 -47.94592763 35.84282179 -50 28 C-50.14762486 24.99150724 -50.11800009 22.00900229 -50 19 C-49.34 19.66 -48.68 20.32 -48 21 C-46.68 21 -45.36 21 -44 21 C-43.5875 20.34 -43.175 19.68 -42.75 19 C-41 17 -41 17 -39.03515625 16.734375 C-37.02153971 16.74853048 -35.00935091 16.86823928 -33 17 C-33 17.66 -33 18.32 -33 19 C-30.48916886 17.74458443 -30.12874554 16.49936512 -29 14 C-28.77848451 15.79008467 -28.57317787 17.58218162 -28.375 19.375 C-28.20097656 20.87160156 -28.20097656 20.87160156 -28.0234375 22.3984375 C-28.01570313 23.25695312 -28.00796875 24.11546875 -28 25 C-28.66 25.66 -29.32 26.32 -30 27 C-28.12841495 29.30460814 -28.12841495 29.30460814 -25.11083984 29.22705078 C-23.30413818 29.21134033 -23.30413818 29.21134033 -21.4609375 29.1953125 C-20.15898438 29.18886719 -18.85703125 29.18242188 -17.515625 29.17578125 C-16.13541405 29.15906929 -14.75520571 29.14213939 -13.375 29.125 C-11.98698548 29.11497006 -10.59896411 29.10584423 -9.2109375 29.09765625 C-5.80711974 29.07401863 -2.40364494 29.04106867 1 29 C1.33 28.34 1.66 27.68 2 27 C-8.23 27 -18.46 27 -29 27 C-29 26.67 -29 26.34 -29 26 C-20.09 25.67 -11.18 25.34 -2 25 C-2 18.4 -2 11.8 -2 5 C-3.98 5 -5.96 5 -8 5 C-8 11.27 -8 17.54 -8 24 C-8.66 24 -9.32 24 -10 24 C-10 17.73 -10 11.46 -10 5 C-12.31 5 -14.62 5 -17 5 C-17 11.27 -17 17.54 -17 24 C-17.33 24 -17.66 24 -18 24 C-18 17.4 -18 10.8 -18 4 C-12.06 4 -6.12 4 0 4 C0 2.68 0 1.36 0 0 Z M1 5 C1 5.33 1 5.66 1 6 C5.29 6 9.58 6 14 6 C14 5.67 14 5.34 14 5 C9.71 5 5.42 5 1 5 Z M1 8 C1 13.28 1 18.56 1 24 C1.33 24 1.66 24 2 24 C2 18.72 2 13.44 2 8 C1.67 8 1.34 8 1 8 Z M11 8 C12 10 12 10 12 10 Z M16 8 C17 10 17 10 17 10 Z M6 11 C7 13 7 13 7 13 Z M11 11 C12 13 12 13 12 13 Z M16 11 C17 13 17 13 17 13 Z M21 11 C20.83318891 13.91652174 20.83318891 13.91652174 21 17 C21.66 17.66 22.32 18.32 23 19 C23 16.69 23 14.38 23 12 C22.34 11.67 21.68 11.34 21 11 Z M6 15 C7 17 7 17 7 17 Z M11 15 C12 17 12 17 12 17 Z M16 15 C17 17 17 17 17 17 Z M-39 19 C-38 21 -38 21 -38 21 Z M-34 19 C-33 21 -33 21 -33 21 Z M6 19 C7 21 7 21 7 21 Z M11 19 C12 21 12 21 12 21 Z M16 19 C17 21 17 21 17 21 Z M21 19 C22 21 22 21 22 21 Z " fill="#2A617B" transform="translate(70,41)"/>
<path d="M0 0 C0.495 0.99 0.495 0.99 1 2 C-3.95 1.505 -3.95 1.505 -9 1 C-9 1.66 -9 2.32 -9 3 C-8.34 2.34 -7.68 1.68 -7 1 C3.11723397 3.97829816 11.20933697 7.73727567 19 15 C19 15.66 19 16.32 19 17 C19.66 17 20.32 17 21 17 C25.60515333 22.53525819 32 30.56392872 32 38 C31.34 38 30.68 38 30 38 C30 38.99 30 39.98 30 41 C31.485 41.495 31.485 41.495 33 42 C32.34 42 31.68 42 31 42 C31 42.66 31 43.32 31 44 C30.34 44 29.68 44 29 44 C28.01 41.36 27.02 38.72 26 36 C26 37.98 26 39.96 26 42 C24.35 42.33 22.7 42.66 21 43 C21 42.34 21 41.68 21 41 C21.66 40.67 22.32 40.34 23 40 C22.01 40 21.02 40 20 40 C20 39.34 20 38.68 20 38 C20.99 38 21.98 38 23 38 C22.67 37.67 22.34 37.34 22 37 C20.96875 37 19.9375 37 18.875 37 C16.1200686 36.65703915 15.1745026 36.18257431 13.2265625 34.14453125 C12.05783996 32.56596257 10.90851122 30.97288101 9.77734375 29.3671875 C7.24483167 25.99421537 4.29075583 23.61917301 1 21 C1.99 20.67 2.98 20.34 4 20 C5.7890625 21.14453125 5.7890625 21.14453125 7.625 22.8125 C8.23601562 23.35519531 8.84703125 23.89789062 9.4765625 24.45703125 C11 26 11 26 12 28 C15.1315587 27.10232344 15.1315587 27.10232344 18 25 C18.495 26.485 18.495 26.485 19 28 C19.99 27.67 20.98 27.34 22 27 C21.07767578 25.98679687 21.07767578 25.98679687 20.13671875 24.953125 C19.32847656 24.06109375 18.52023438 23.1690625 17.6875 22.25 C16.48673828 20.92742188 16.48673828 20.92742188 15.26171875 19.578125 C10 13.58031088 10 13.58031088 10 11 C7.64561267 9.57055055 6.51967567 8.91338739 3.75 9.375 C3.1725 9.58125 2.595 9.7875 2 10 C1.505 9.01 1.505 9.01 1 8 C1.33 7.67 1.66 7.34 2 7 C0.20800528 6.21717352 0.20800528 6.21717352 -2 6 C-4.13344768 7.3916876 -4.13344768 7.3916876 -6 9 C-6.66 9 -7.32 9 -8 9 C-8 9.99 -8 10.98 -8 12 C-4.41672247 13.00217064 -4.41672247 13.00217064 -1 12 C-0.505 14.475 -0.505 14.475 0 17 C-1.670625 16.2884375 -1.670625 16.2884375 -3.375 15.5625 C-8.17683359 13.73814745 -12.90272966 13.30291156 -18 13 C-18.495 11.515 -18.495 11.515 -19 10 C-18.34 10 -17.68 10 -17 10 C-16.67 9.34 -16.34 8.68 -16 8 C-16 8.66 -16 9.32 -16 10 C-15.01 9.67 -14.02 9.34 -13 9 C-12.67 8.01 -12.34 7.02 -12 6 C-14.64 6 -17.28 6 -20 6 C-20 6.66 -20 7.32 -20 8 C-20.66 8 -21.32 8 -22 8 C-22 8.99 -22 9.98 -22 11 C-21.34 11 -20.68 11 -20 11 C-20 11.66 -20 12.32 -20 13 C-21.65 13 -23.3 13 -25 13 C-25 13.66 -25 14.32 -25 15 C-25.66 14.67 -26.32 14.34 -27 14 C-26.67 13.05125 -26.34 12.1025 -26 11.125 C-24.89840809 8.22937548 -24.89840809 8.22937548 -25 6 C-37.01370808 6.96302269 -47.08542233 13.05583139 -55.27734375 21.76953125 C-58.43157644 25.85358311 -60.75298699 30.36979137 -63 35 C-63.99 35 -64.98 35 -66 35 C-66.33 37.31 -66.66 39.62 -67 42 C-67.99 42 -68.98 42 -70 42 C-69.55183066 31.91618989 -62.93528833 22.04815921 -56 15 C-43.91732346 4.99941291 -30.80502667 -0.40525709 -15 0 C-21.86361501 -1.59618954 -28.14554904 -0.24720085 -35 1 C-34 -1 -34 -1 -32.3203125 -1.6328125 C-21.2962605 -4.10439711 -10.82452352 -3.3235861 0 0 Z " fill="#226FB6" transform="translate(75,3)"/>
<path d="M0 0 C14.07427806 0.26600869 22.16790842 5.18448867 32 15 C32.97646484 15.9590625 32.97646484 15.9590625 33.97265625 16.9375 C43.76773584 27.27077077 47.35687833 39.58800349 47.25 53.5 C47.26160156 55.01013672 47.26160156 55.01013672 47.2734375 56.55078125 C47.25890881 62.09347516 46.85240409 66.76622337 45 72 C44.31292445 69.50935112 44 67.62113708 44 65 C43.78085938 65.67804688 43.56171875 66.35609375 43.3359375 67.0546875 C37.75781173 83.42625989 28.53114038 94.66013451 13.03515625 102.5 C6.62839806 105.20946602 6.62839806 105.20946602 3 104 C3 103.67 3 103.34 3 103 C2.34 103 1.68 103 1 103 C1 102.34 1 101.68 1 101 C2.08539063 100.62488281 3.17078125 100.24976562 4.2890625 99.86328125 C5.73461082 99.34701399 7.17991031 98.83004963 8.625 98.3125 C9.33785156 98.06822266 10.05070312 97.82394531 10.78515625 97.57226562 C15.74386261 95.77530323 19.12660439 93.58625114 23 90 C22.01 89.0409375 22.01 89.0409375 21 88.0625 C19 86 19 86 19 85 C20.65 85 22.3 85 24 85 C24.33 85.99 24.66 86.98 25 88 C25.66 88 26.32 88 27 88 C27.27070312 87.42121094 27.54140625 86.84242187 27.8203125 86.24609375 C29.00220886 83.99579439 30.36359608 82.10250374 31.875 80.0625 C35.98012008 74.01549714 39 66.37735858 39 59 C38.01 59 37.02 59 36 59 C36.495 58.01 36.495 58.01 37 57 C34.525 57.495 34.525 57.495 32 58 C30.68 51.07 29.36 44.14 28 37 C30.475 36.505 30.475 36.505 33 36 C33 36.66 33 37.32 33 38 C32.01 38 31.02 38 30 38 C30 38.66 30 39.32 30 40 C31.98 39.505 31.98 39.505 34 39 C34.33 39.66 34.66 40.32 35 41 C33.68 41 32.36 41 31 41 C31 41.66 31 42.32 31 43 C33.475 42.505 33.475 42.505 36 42 C35.505 39.03 35.505 39.03 35 36 C35.66 35.67 36.32 35.34 37 35 C37.66 37.97 38.32 40.94 39 44 C39.66 44 40.32 44 41 44 C40.505 41.03 40.505 41.03 40 38 C40.66 38 41.32 38 42 38 C40.73652837 35.39202649 39.46464776 32.78876593 38.1875 30.1875 C37.83107422 29.44951172 37.47464844 28.71152344 37.10742188 27.95117188 C36.75615234 27.23896484 36.40488281 26.52675781 36.04296875 25.79296875 C35.72352295 25.1383667 35.40407715 24.48376465 35.07495117 23.80932617 C34.05419937 21.9185758 34.05419937 21.9185758 32.37231445 20.38793945 C31 19 31 19 31 17 C30.34 17 29.68 17 29 17 C28.319375 16.29875 27.63875 15.5975 26.9375 14.875 C20.13719146 7.89677641 12.24385941 4.65897817 3 2 C2.34 2.66 1.68 3.32 1 4 C0.34 3.34 -0.32 2.68 -1 2 C-0.67 1.34 -0.34 0.68 0 0 Z M35 51 C34.67 52.32 34.34 53.64 34 55 C35.32 55 36.64 55 38 55 C38 53.68 38 52.36 38 51 C37.01 51 36.02 51 35 51 Z " fill="#306E8D" transform="translate(65,3)"/>
<path d="M0 0 C-3.06530075 1.79449269 -5.04070707 2.16377665 -8.5625 1.9375 C-20.85490464 1.73952569 -33.5125114 7.47378253 -43.05859375 15.046875 C-55.33293394 27.39530578 -59.63440018 42.10968641 -61 59 C-60.34 59 -59.68 59 -59 59 C-59 60.32 -59 61.64 -59 63 C-57.515 62.505 -57.515 62.505 -56 62 C-56 58.7 -56 55.4 -56 52 C-55.34 52 -54.68 52 -54 52 C-54 51.34 -54 50.68 -54 50 C-52.02 49.505 -52.02 49.505 -50 49 C-49.67 49.66 -49.34 50.32 -49 51 C-48.34 50.34 -47.68 49.68 -47 49 C-46.96261719 49.88300781 -46.92523438 50.76601563 -46.88671875 51.67578125 C-46.45872372 59.48878863 -45.41614776 66.55401004 -43 74 C-45.97 73.01 -48.94 72.02 -52 71 C-52 70.01 -52 69.02 -52 68 C-52.33 67.67 -52.66 67.34 -53 67 C-52.46675878 71.56967478 -51.26850159 74.73636964 -48.9375 78.6875 C-46 83.68470588 -46 83.68470588 -46 87 C-48.375 86.8125 -48.375 86.8125 -51 86 C-51.68132451 84.33927151 -52.34742127 82.672233 -53 81 C-53.80050781 80.70738281 -54.60101563 80.41476563 -55.42578125 80.11328125 C-58 79 -58 79 -59.29296875 77.0390625 C-65.27824041 60.88666999 -65.38562398 47.24365186 -58.90234375 31.30078125 C-52.15619962 16.7336836 -40.7671026 6.95122304 -26 1 C-23.23614029 0.32783684 -20.87263378 0.14606612 -18 0 C-16.906875 -0.20625 -15.81375 -0.4125 -14.6875 -0.625 C-9.70469192 -1.13172625 -4.9591836 -0.58290585 0 0 Z M-54 52 C-53.67 53.65 -53.34 55.3 -53 57 C-52.01 57 -51.02 57 -50 57 C-49.67 56.01 -49.34 55.02 -49 54 C-49.33 53.34 -49.66 52.68 -50 52 C-51.32 52 -52.64 52 -54 52 Z " fill="#0D5760" transform="translate(64,2)"/>
<path d="M0 0 C0.33 0 0.66 0 1 0 C1.22151549 1.79008467 1.42682213 3.58218162 1.625 5.375 C1.79902344 6.87160156 1.79902344 6.87160156 1.9765625 8.3984375 C1.98429687 9.25695312 1.99203125 10.11546875 2 11 C1.34 11.66 0.68 12.32 0 13 C1.87158505 15.30460814 1.87158505 15.30460814 4.88916016 15.22705078 C6.69586182 15.21134033 6.69586182 15.21134033 8.5390625 15.1953125 C9.84101562 15.18886719 11.14296875 15.18242188 12.484375 15.17578125 C13.86458595 15.15906929 15.24479429 15.14213939 16.625 15.125 C18.01301452 15.11497006 19.40103589 15.10584423 20.7890625 15.09765625 C24.19288026 15.07401863 27.59635506 15.04106867 31 15 C31.33 14.34 31.66 13.68 32 13 C21.77 13 11.54 13 1 13 C1 12.67 1 12.34 1 12 C11.56 11.67 22.12 11.34 33 11 C32.505 10.01 32.505 10.01 32 9 C32.99 9 33.98 9 35 9 C34.505 7.02 34.505 7.02 34 5 C35.75 3.4375 35.75 3.4375 38 2 C40.25 2.3125 40.25 2.3125 42 3 C42 3.66 42 4.32 42 5 C41.34 5.33 40.68 5.66 40 6 C40 7.32 40 8.64 40 10 C40.969375 10.28875 41.93875 10.5775 42.9375 10.875 C46 12 46 12 47 14 C43.7 14.33 40.4 14.66 37 15 C37 15.99 37 16.98 37 18 C38.32 18.33 39.64 18.66 41 19 C35.79739556 20.06268208 30.79846644 20.14525305 25.515625 20.1328125 C24.61882019 20.13376923 23.72201538 20.13472595 22.79803467 20.13571167 C20.91206797 20.13638953 19.02609888 20.13456284 17.14013672 20.13037109 C14.24571555 20.12499204 11.35144778 20.1303423 8.45703125 20.13671875 C6.62239549 20.13605839 4.78775983 20.13477811 2.953125 20.1328125 C1.65160492 20.13584885 1.65160492 20.13584885 0.3237915 20.13894653 C-5.77004892 20.11497554 -5.77004892 20.11497554 -8 19 C-8 18.34 -8 17.68 -8 17 C-6.68 17 -5.36 17 -4 17 C-4 16.34 -4 15.68 -4 15 C-8.29 14.67 -12.58 14.34 -17 14 C-11.24507255 24.71055942 -6.12856745 31.25955973 5.765625 35.26953125 C9.15420552 36.27072219 12.56800455 37.15930947 16 38 C16 38.33 16 38.66 16 39 C7.86044134 39.61430631 0.89320955 37.86460589 -5.75 32.9765625 C-11.67673858 27.80830535 -17.94592763 21.84282179 -20 14 C-20.14762486 10.99150724 -20.11800009 8.00900229 -20 5 C-19.34 5.66 -18.68 6.32 -18 7 C-16.68 7 -15.36 7 -14 7 C-13.5875 6.34 -13.175 5.68 -12.75 5 C-11 3 -11 3 -9.03515625 2.734375 C-7.02153971 2.74853048 -5.00935091 2.86823928 -3 3 C-3 3.66 -3 4.32 -3 5 C-2.34 4.67 -1.68 4.34 -1 4 C-0.34786708 1.97536745 -0.34786708 1.97536745 0 0 Z M-9 5 C-8 7 -8 7 -8 7 Z M-4 5 C-3 7 -3 7 -3 7 Z M36 5 C37 7 37 7 37 7 Z " fill="#3C6A79" transform="translate(40,55)"/>
<path d="M0 0 C0.33 0 0.66 0 1 0 C1.96194972 13.33369201 -1.83206909 23.57884676 -10 34 C-10.66 34.99 -11.32 35.98 -12 37 C-12.66 37 -13.32 37 -14 37 C-14.33 36.34 -14.66 35.68 -15 35 C-16.32 35 -17.64 35 -19 35 C-18.67 35.99 -18.34 36.98 -18 38 C-16.515 38.495 -16.515 38.495 -15 39 C-16.12279462 39.98169476 -17.24831473 40.96027298 -18.375 41.9375 C-19.00148438 42.48277344 -19.62796875 43.02804688 -20.2734375 43.58984375 C-22.6590168 45.53824676 -23.554746 46.02070949 -26.6875 45.875 C-30.81551779 46.03077426 -33.29637355 47.2222593 -37 49 C-37.92572166 46.50055151 -38.04027829 45.16111315 -37.38671875 42.546875 C-35.54314405 39.16092935 -33.68044017 38.48369669 -30.1875 36.9375 C-20.47910812 32.5837988 -14.80437665 26.19383575 -10.921875 16.234375 C-9.68931321 12.19833935 -8.80474771 8.14079276 -8 4 C-7.34 4.33 -6.68 4.66 -6 5 C-5.319375 5.165 -4.63875 5.33 -3.9375 5.5 C-2 6 -2 6 -1 7 C-0.67 4.69 -0.34 2.38 0 0 Z " fill="#185438" transform="translate(104,54)"/>
<path d="M0 0 C1.98 0 3.96 0 6 0 C6.02725341 1.7290774 6.04650987 3.45828176 6.0625 5.1875 C6.07410156 6.15042969 6.08570313 7.11335938 6.09765625 8.10546875 C6 11 6 11 5.43359375 13.61328125 C4.7791136 16.28389154 4.7791136 16.28389154 6 20 C9.63 20 13.26 20 17 20 C17 13.4 17 6.8 17 0 C18.98 0 20.96 0 23 0 C23 6.6 23 13.2 23 20 C24.32 20.66 25.64 21.32 27 22 C26.505 23.485 26.505 23.485 26 25 C21.92503897 25.09893453 17.85054344 25.17149694 13.7746582 25.21972656 C12.38846662 25.23983275 11.00235975 25.26712245 9.61645508 25.30175781 C7.62358094 25.35031225 5.63008611 25.37083972 3.63671875 25.390625 C2.43748779 25.41157227 1.23825684 25.43251953 0.00268555 25.45410156 C-3 25 -3 25 -4.91479492 22.97558594 C-5.2729126 22.32364258 -5.63103027 21.67169922 -6 21 C-3 19 -3 19 0 19 C0 12.73 0 6.46 0 0 Z " fill="#487E8F" transform="translate(45,46)"/>
<path d="M0 0 C1.32 0.66 2.64 1.32 4 2 C4.74007787 18.38450169 1.27142087 30.74432269 -9.61010742 43.53881836 C-15.71064209 49.95225592 -25.33230608 56.02550602 -34 58 C-34.99 57.67 -35.98 57.34 -37 57 C-37 56.67 -37 56.34 -37 56 C-37.66 56 -38.32 56 -39 56 C-39 55.34 -39 54.68 -39 54 C-37.91460937 53.62488281 -36.82921875 53.24976563 -35.7109375 52.86328125 C-34.26538918 52.34701399 -32.82008969 51.83004963 -31.375 51.3125 C-30.66214844 51.06822266 -29.94929688 50.82394531 -29.21484375 50.57226562 C-24.25613739 48.77530323 -20.87339561 46.58625114 -17 43 C-17.99 42.0409375 -17.99 42.0409375 -19 41.0625 C-21 39 -21 39 -21 38 C-19.35 38 -17.7 38 -16 38 C-15.67 38.99 -15.34 39.98 -15 41 C-14.34 41 -13.68 41 -13 41 C-12.59394531 40.13181641 -12.59394531 40.13181641 -12.1796875 39.24609375 C-10.99779114 36.99579439 -9.63640392 35.10250374 -8.125 33.0625 C-1.37870973 22.9513119 -0.32689464 11.81724122 0 0 Z " fill="#56836C" transform="translate(105,50)"/>
<path d="M0 0 C1.65759351 0 3.31532592 -0.00561967 4.97265625 -0.03515625 C10.77777778 -0.11111111 10.77777778 -0.11111111 13 1 C13 5.29 13 9.58 13 14 C5.41 14 -2.18 14 -10 14 C-10 9.71 -10 5.42 -10 1 C-6.83598119 -0.58200941 -3.46125163 -0.06168567 0 0 Z " fill="#1F5549" transform="translate(55,76)"/>
<path d="M0 0 C1.32 0 2.64 0 4 0 C3.7525 0.66 3.505 1.32 3.25 2 C2.92612572 5.88649142 4.21248545 7.90213522 6.08984375 11.23046875 C7 13 7 13 7 15 C7.66 15 8.32 15 9 15 C9.33 15.99 9.66 16.98 10 18 C11.49985609 19.66710346 11.49985609 19.66710346 13 21 C12.67 21.66 12.34 22.32 12 23 C12.39938767 25.09821215 12.39938767 25.09821215 13 27 C12.34 27.33 11.68 27.66 11 28 C13.68841859 30.25245881 15.64641875 31.88213958 19 33 C19.33 32.34 19.66 31.68 20 31 C20.66 31 21.32 31 22 31 C21.01 30.01 20.02 29.02 19 28 C20.65 27.67 22.3 27.34 24 27 C24.33 27.99 24.66 28.98 25 30 C27.01508358 30.73323796 27.01508358 30.73323796 29 31 C29 31.66 29 32.32 29 33 C29.99 33.495 29.99 33.495 31 34 C29.35 34 27.7 34 26 34 C26.66 34.66 27.32 35.32 28 36 C28 36.99 28 37.98 28 39 C28.79664062 39.13277344 29.59328125 39.26554687 30.4140625 39.40234375 C32.5390625 39.75651042 34.6640625 40.11067708 36.7890625 40.46484375 C37.84867188 40.64144531 38.90828125 40.81804687 40 41 C42 41.33333333 44 41.66666667 46 42 C46 42.33 46 42.66 46 43 C30.76323491 43.8007643 19.50705605 40.00242972 8 30 C3.31359421 25.14076222 -0.7460836 20.42655139 -3 14 C-1.125 14.25 -1.125 14.25 1 15 C1.309375 15.66 1.61875 16.32 1.9375 17 C2.288125 17.66 2.63875 18.32 3 19 C5.53003851 19.65505786 5.53003851 19.65505786 8 20 C7.4225 18.89140625 6.845 17.7828125 6.25 16.640625 C5.49957701 15.17730017 4.74960026 13.71374645 4 12.25 C3.42765625 11.15558594 3.42765625 11.15558594 2.84375 10.0390625 C2.4828125 9.33007812 2.121875 8.62109375 1.75 7.890625 C1.41484375 7.24125977 1.0796875 6.59189453 0.734375 5.92285156 C0 4 0 4 0 0 Z " fill="#0C3C2B" transform="translate(10,68)"/>
<path d="M0 0 C-0.33 0.66 -0.66 1.32 -1 2 C-0.34 2.33 0.32 2.66 1 3 C1.33 2.34 1.66 1.68 2 1 C5 2.8125 5 2.8125 8 5 C8 5.99 8 6.98 8 8 C9.92886843 10.2181387 9.92886843 10.2181387 12.375 12.4375 C15.25677312 15.14087764 17.47620787 17.32447941 19 21 C17.35 21.33 15.7 21.66 14 22 C13.67 21.01 13.34 20.02 13 19 C12.67 19.99 12.34 20.98 12 22 C7.1452735 21.58388059 5.19560921 19.54108048 2 16 C1.34 15.34 0.68 14.68 0 14 C-1.32 14 -2.64 14 -4 14 C-3.67 13.01 -3.34 12.02 -3 11 C-3.33 10.67 -3.66 10.34 -4 10 C-4.66 9.01 -5.32 8.02 -6 7 C-9.05429073 5.78715124 -9.05429073 5.78715124 -12 5 C-11.8125 2.625 -11.8125 2.625 -11 0 C-6.91941196 -2.68152928 -4.3289005 -1.81209788 0 0 Z " fill="#1463A3" transform="translate(79,10)"/>
<path d="M0 0 C4.30068518 3.88829071 4.81524252 8.50258861 5.2265625 14.0625 C5.53806226 26.06939974 2.70201862 35.61448005 -5 45 C-15.12285602 54.25473973 -25.27925725 58.03448276 -38.8046875 57.4453125 C-49.59748669 56.57153997 -59.12815324 50.6975835 -66.07421875 42.57421875 C-69.67436222 37.76185659 -71.86836072 34.05540701 -72 28 C-69.90846944 30.66249437 -68.27274991 33.29380916 -66.75 36.3125 C-61.84392571 45.17837312 -54.68794512 50.74812055 -44.90625 53.61328125 C-35.37958806 55.54594423 -23.4578216 52.52504386 -15.3125 47.375 C-14.75175781 46.97023437 -14.19101563 46.56546875 -13.61328125 46.1484375 C-12 45 -12 45 -9.85546875 44.0390625 C-7.65223046 43.07872794 -7.65223046 43.07872794 -7 40 C-6.01 40 -5.02 40 -4 40 C2.98000905 28.73074876 4.4463924 18.82622125 1.5 5.9375 C1.00970868 3.95590592 0.51304287 1.97582583 0 0 Z " fill="#7EB2AC" transform="translate(91,39)"/>
<path d="M0 0 C-3.06530075 1.79449269 -5.04070707 2.16377665 -8.5625 1.9375 C-20.86770168 1.73931959 -33.48149773 7.48475344 -43.0546875 15.03515625 C-48.21565459 20.24794028 -52.42542807 26.78321343 -55.63671875 33.34375 C-57 36 -57 36 -59 37 C-60.32423403 40.81690986 -61.08782022 44.36167056 -61.5 48.375 C-61.665 49.57125 -61.83 50.7675 -62 52 C-62.99 52.495 -62.99 52.495 -64 53 C-63.59352801 36.96283259 -56.20527607 22.65711091 -44.8125 11.625 C-37.25694793 5.38172803 -27.89809426 0.34730155 -18 0 C-16.906875 -0.20625 -15.81375 -0.4125 -14.6875 -0.625 C-9.70469192 -1.13172625 -4.9591836 -0.58290585 0 0 Z " fill="#145EA7" transform="translate(64,2)"/>
<path d="M0 0 C1.97559409 5.69355241 -0.18047989 11.4915898 -2 17 C-3.98835731 20.9562161 -6.34921222 24.46005909 -9 28 C-9.50144531 28.70769531 -10.00289062 29.41539063 -10.51953125 30.14453125 C-16.50466734 37.82671858 -28.23960959 46.49840147 -38 48 C-43.01588835 48.21562673 -47.98415555 48.17633828 -53 48 C-53 47.67 -53 47.34 -53 47 C-51.91203125 46.78085938 -50.8240625 46.56171875 -49.703125 46.3359375 C-40.41264405 44.36988891 -32.21733013 41.95034911 -24 37 C-23.26394531 36.56042969 -22.52789062 36.12085938 -21.76953125 35.66796875 C-10.73138742 28.25938866 -4.69488995 15.73846366 -1.61328125 3.22265625 C-1 1 -1 1 0 0 Z " fill="#235446" transform="translate(110,63)"/>
<path d="M0 0 C-1 2 -1 2 -3.06640625 2.8515625 C-3.89011719 3.10679688 -4.71382812 3.36203125 -5.5625 3.625 C-6.38878906 3.88539062 -7.21507812 4.14578125 -8.06640625 4.4140625 C-8.70449219 4.60742188 -9.34257813 4.80078125 -10 5 C-9.67 5.66 -9.34 6.32 -9 7 C-9.70125 7.4125 -10.4025 7.825 -11.125 8.25 C-22.002774 14.87125374 -28.42497451 21.51206868 -34 33 C-34.99 33 -35.98 33 -37 33 C-37.33 35.31 -37.66 37.62 -38 40 C-38.99 40 -39.98 40 -41 40 C-40.55263609 29.93431192 -33.94592011 20.02074151 -27 13 C-9.2717562 -1.19635564 -9.2717562 -1.19635564 0 0 Z " fill="#5096D4" transform="translate(46,5)"/>
<path d="M0 0 C0.33 0.66 0.66 1.32 1 2 C3.02463255 2.65213292 3.02463255 2.65213292 5 3 C5 3.66 5 4.32 5 5 C3.4609375 6.2265625 3.4609375 6.2265625 1.375 7.625 C-4.8129275 12.12331609 -9.12175624 17.48702497 -11 25 C-11.174104 25.62438965 -11.34820801 26.2487793 -11.52758789 26.89208984 C-12.02879069 29.12846453 -12.17423191 31.18714593 -12.24609375 33.4765625 C-12.27896484 34.311875 -12.31183594 35.1471875 -12.34570312 36.0078125 C-12.4071701 37.7602752 -12.46442567 39.51289042 -12.51757812 41.265625 C-12.55173828 42.09835938 -12.58589844 42.93109375 -12.62109375 43.7890625 C-12.6461499 44.54912598 -12.67120605 45.30918945 -12.69702148 46.09228516 C-13 48 -13 48 -15 50 C-15.76797796 47.2670814 -16.12805332 44.83222214 -16.1328125 41.99609375 C-16.13474609 40.88524414 -16.13474609 40.88524414 -16.13671875 39.75195312 C-16.13285156 38.98818359 -16.12898438 38.22441406 -16.125 37.4375 C-16.12886719 36.66986328 -16.13273437 35.90222656 -16.13671875 35.11132812 C-16.130981 31.82072861 -16.04747031 29.14241093 -15 26 C-16.98 25.34 -18.96 24.68 -21 24 C-20.67 22.68 -20.34 21.36 -20 20 C-18.02 20 -16.04 20 -14 20 C-14 19.01 -14 18.02 -14 17 C-13.41476563 16.91492188 -12.82953125 16.82984375 -12.2265625 16.7421875 C-9.36918834 15.78972945 -8.28898022 14.42683524 -6.375 12.125 C-5.78460938 11.42632812 -5.19421875 10.72765625 -4.5859375 10.0078125 C-2.86406516 7.88325412 -2.86406516 7.88325412 -1 5 C-3.64 5 -6.28 5 -9 5 C-8.34 3.68 -7.68 2.36 -7 1 C-6.67 1.66 -6.34 2.32 -6 3 C-5.3503125 2.2575 -5.3503125 2.2575 -4.6875 1.5 C-3 0 -3 0 0 0 Z M-11 5 C-10.34 5 -9.68 5 -9 5 C-9 5.66 -9 6.32 -9 7 C-9.66 7 -10.32 7 -11 7 C-11 6.34 -11 5.68 -11 5 Z " fill="#216590" transform="translate(33,19)"/>
<path d="M0 0 C4.39674114 0.50731629 6.83808109 3.11914055 10 6 C10.33 6.66 10.66 7.32 11 8 C14.1315587 7.10232344 14.1315587 7.10232344 17 5 C17.33 5.99 17.66 6.98 18 8 C18.99 7.67 19.98 7.34 21 7 C20.34 4.69 19.68 2.38 19 0 C22.65307334 3.3568782 25.38725489 6.25663202 27 11 C26.1875 14.625 26.1875 14.625 25 18 C25 19.32 25 20.64 25 22 C23.35 22.33 21.7 22.66 20 23 C20 22.34 20 21.68 20 21 C20.66 20.67 21.32 20.34 22 20 C21.01 20 20.02 20 19 20 C19 19.34 19 18.68 19 18 C19.99 18 20.98 18 22 18 C21.67 17.67 21.34 17.34 21 17 C19.96875 17 18.9375 17 17.875 17 C15.1200686 16.65703915 14.1745026 16.18257431 12.2265625 14.14453125 C11.0572117 12.56511399 9.90791196 10.97068776 8.77734375 9.36328125 C6.25196073 6.00535437 3.24494383 3.64893374 0 1 C0 0.67 0 0.34 0 0 Z " fill="#08578D" transform="translate(76,23)"/>
<path d="M0 0 C0.74121094 0.2165625 1.48242188 0.433125 2.24609375 0.65625 C11.64591087 3.14139137 20.33687989 3.31246017 30 3 C30 3.66 30 4.32 30 5 C31.98 4.67 33.96 4.34 36 4 C32.71195019 6.91227269 30.40114397 8.49701212 26 9 C28.475 9.495 28.475 9.495 31 10 C31 10.33 31 10.66 31 11 C24.07 11 17.14 11 10 11 C11.32 10.34 12.64 9.68 14 9 C8.06 7.515 8.06 7.515 2 6 C2 5.34 2 4.68 2 4 C1.34 3.67 0.68 3.34 0 3 C0 2.01 0 1.02 0 0 Z " fill="#386E4A" transform="translate(36,101)"/>
<path d="M0 0 C1.32 0 2.64 0 4 0 C4 0.66 4 1.32 4 2 C5.66666667 2.33333333 7.33333333 2.66666667 9 3 C10.66666667 3.33333333 12.33333333 3.66666667 14 4 C14 4.99 14 5.98 14 7 C13.34 7 12.68 7 12 7 C12.66 8.98 13.32 10.96 14 13 C15.65 13.33 17.3 13.66 19 14 C19.33 15.65 19.66 17.3 20 19 C18.35 19.33 16.7 19.66 15 20 C14.34 18.68 13.68 17.36 13 16 C12.34 16 11.68 16 11 16 C10.67 16.66 10.34 17.32 10 18 C7.64046906 15.64046906 7.50858587 14.22104383 7 11 C7.66 10.67 8.32 10.34 9 10 C7.68 9.34 6.36 8.68 5 8 C3.5393715 10.64738916 3 11.89448334 3 15 C2.01 15 1.02 15 0 15 C0 10.05 0 5.1 0 0 Z M4 3 C5 5 5 5 5 5 Z " fill="#416D86" transform="translate(72,49)"/>
<path d="M0 0 C9.04202061 2.5452932 16.05669063 6.72315139 23 13 C23 13.66 23 14.32 23 15 C23.66 15 24.32 15 25 15 C29.60515333 20.53525819 36 28.56392872 36 36 C35.34 36 34.68 36 34 36 C34 36.99 34 37.98 34 39 C34.99 39.33 35.98 39.66 37 40 C36.34 40 35.68 40 35 40 C35 40.66 35 41.32 35 42 C34.34 42 33.68 42 33 42 C32.46605821 40.5882217 31.94834896 39.17029756 31.4375 37.75 C31.14746094 36.96109375 30.85742188 36.1721875 30.55859375 35.359375 C30 33 30 33 30.59375 31.03125 C31.21892625 27.90536877 29.74586857 26.360939 28.0625 23.75 C27.49660156 22.85796875 26.93070313 21.9659375 26.34765625 21.046875 C25.90292969 20.37140625 25.45820312 19.6959375 25 19 C25.33 20.32 25.66 21.64 26 23 C21.4857225 19.33133644 17.49848894 15.66465192 14 11 C14 10.34 14 9.68 14 9 C11.64561267 7.57055055 10.51967567 6.91338739 7.75 7.375 C6.88375 7.684375 6.88375 7.684375 6 8 C5.67 7.34 5.34 6.68 5 6 C5.33 5.67 5.66 5.34 6 5 C4.02 4.01 2.04 3.02 0 2 C0 1.34 0 0.68 0 0 Z " fill="#4C8FB8" transform="translate(71,5)"/>
<path d="M0 0 C14.04178072 0.26539448 22.21214746 5.16287975 32 15 C38.60136523 21.93639692 42.2468258 27.53285932 44 37 C43.01 37.495 43.01 37.495 42 38 C41.45730469 36.87980469 40.91460937 35.75960937 40.35546875 34.60546875 C39.63313338 33.13265508 38.91045938 31.66000746 38.1875 30.1875 C37.83107422 29.44951172 37.47464844 28.71152344 37.10742188 27.95117188 C36.75615234 27.23896484 36.40488281 26.52675781 36.04296875 25.79296875 C35.72352295 25.1383667 35.40407715 24.48376465 35.07495117 23.80932617 C34.05419937 21.9185758 34.05419937 21.9185758 32.37231445 20.38793945 C31 19 31 19 31 17 C30.34 17 29.68 17 29 17 C28.319375 16.29875 27.63875 15.5975 26.9375 14.875 C20.13719146 7.89677641 12.24385941 4.65897817 3 2 C2.34 2.66 1.68 3.32 1 4 C0.34 3.34 -0.32 2.68 -1 2 C-0.67 1.34 -0.34 0.68 0 0 Z " fill="#0E558A" transform="translate(65,3)"/>
<path d="M0 0 C2.97 0 5.94 0 9 0 C9 6.27 9 12.54 9 19 C9.66 19.33 10.32 19.66 11 20 C7.37 20 3.74 20 0 20 C-2.125 14.375 -2.125 14.375 -1 11 C-0.77820215 9.10787263 -0.59385985 7.21115528 -0.4375 5.3125 C-0.35371094 4.31863281 -0.26992188 3.32476562 -0.18359375 2.30078125 C-0.12300781 1.54152344 -0.06242187 0.78226563 0 0 Z M3 13 C3 14.98 3 16.96 3 19 C4.65 19 6.3 19 8 19 C8 17.02 8 15.04 8 13 C6.35 13 4.7 13 3 13 Z " fill="#386C82" transform="translate(51,46)"/>
<path d="M0 0 C1.32 0.66 2.64 1.32 4 2 C4.61390089 15.59108359 2.98212804 25.58293981 -5 37 C-5.495 35.515 -5.495 35.515 -6 34 C-6.66 33.67 -7.32 33.34 -8 33 C-7.66226563 32.3709375 -7.32453125 31.741875 -6.9765625 31.09375 C-1.58393453 20.7448917 -0.5669039 11.45742618 0 0 Z " fill="#5C9896" transform="translate(105,50)"/>
<path d="M0 0 C2.64 0 5.28 0 8 0 C8 0.66 8 1.32 8 2 C9.65 2 11.3 2 13 2 C12.67 3.32 12.34 4.64 12 6 C12.66 6 13.32 6 14 6 C14 4.02 14 2.04 14 0 C17.33333333 0 20.66666667 0 24 0 C24 2.64 24 5.28 24 8 C23.01 7.67 22.02 7.34 21 7 C20.67 6.34 20.34 5.68 20 5 C19.360625 5.495 18.72125 5.99 18.0625 6.5 C13.93546996 8.52140247 10.50476728 8.22776913 6 8 C5.01 8 4.02 8 3 8 C1.66018514 7.6937566 0.32488113 7.36548445 -1 7 C-0.01 5.35 0.98 3.7 2 2 C1.34 2 0.68 2 0 2 C0 1.34 0 0.68 0 0 Z M8 3 C8.33 3.99 8.66 4.98 9 6 C9 5.01 9 4.02 9 3 C8.67 3 8.34 3 8 3 Z " fill="#306384" transform="translate(45,25)"/>
<path d="M0 0 C1.65 0.33 3.3 0.66 5 1 C5 1.99 5 2.98 5 4 C4.01 4.33 3.02 4.66 2 5 C2.33 5.66 2.66 6.32 3 7 C1.68 7.33 0.36 7.66 -1 8 C-0.01 8.33 0.98 8.66 2 9 C1.73564694 15.34447335 -0.54472621 19.45018459 -5 24 C-5.66 24 -6.32 24 -7 24 C-7.33 23.34 -7.66 22.68 -8 22 C-10.52733235 21.34444881 -10.52733235 21.34444881 -13 21 C-12.67 20.34 -12.34 19.68 -12 19 C-11.34 19 -10.68 19 -10 19 C-9.7525 18.443125 -9.505 17.88625 -9.25 17.3125 C-7.76129471 14.55839521 -6.11590028 12.30825486 -4 10 C-3.01 10 -2.02 10 -1 10 C-1.66 9.67 -2.32 9.34 -3 9 C-2.01 6.03 -1.02 3.06 0 0 Z " fill="#3A7A69" transform="translate(97,67)"/>
<path d="M0 0 C0.763125 0.226875 1.52625 0.45375 2.3125 0.6875 C2.3125 1.3475 2.3125 2.0075 2.3125 2.6875 C1.6525 3.0175 0.9925 3.3475 0.3125 3.6875 C0.3125 5.0075 0.3125 6.3275 0.3125 7.6875 C1.281875 7.97625 2.25125 8.265 3.25 8.5625 C6.3125 9.6875 6.3125 9.6875 7.3125 11.6875 C4.0125 12.0175 0.7125 12.3475 -2.6875 12.6875 C-2.6875 13.3475 -2.6875 14.0075 -2.6875 14.6875 C-4.0075 14.6875 -5.3275 14.6875 -6.6875 14.6875 C-7.0175 13.3675 -7.3475 12.0475 -7.6875 10.6875 C-17.9175 10.6875 -28.1475 10.6875 -38.6875 10.6875 C-38.6875 10.3575 -38.6875 10.0275 -38.6875 9.6875 C-28.1275 9.3575 -17.5675 9.0275 -6.6875 8.6875 C-7.0175 8.0275 -7.3475 7.3675 -7.6875 6.6875 C-6.6975 6.6875 -5.7075 6.6875 -4.6875 6.6875 C-4.914375 6.089375 -5.14125 5.49125 -5.375 4.875 C-5.6875 2.6875 -5.6875 2.6875 -4.5625 0.875 C-2.6875 -0.3125 -2.6875 -0.3125 0 0 Z M-3.6875 2.6875 C-2.6875 4.6875 -2.6875 4.6875 -2.6875 4.6875 Z " fill="#285968" transform="translate(79.6875,57.3125)"/>
<path d="M0 0 C0 0.66 0 1.32 0 2 C0.66 2.33 1.32 2.66 2 3 C1.67 3.66 1.34 4.32 1 5 C0.34 5 -0.32 5 -1 5 C-1 5.99 -1 6.98 -1 8 C-4.37097383 9.49821059 -6.20442119 10 -10 10 C-10.33 10.66 -10.66 11.32 -11 12 C-11.99 12 -12.98 12 -14 12 C-13.67 10.68 -13.34 9.36 -13 8 C-14.65 8 -16.3 8 -18 8 C-17.67 7.34 -17.34 6.68 -17 6 C-16.01 6 -15.02 6 -14 6 C-14.33 5.01 -14.66 4.02 -15 3 C-10.25420243 0.26203987 -5.40112241 -0.15885654 0 0 Z " fill="#095AA7" transform="translate(50,9)"/>
<path d="M0 0 C0.33 0 0.66 0 1 0 C1.61664677 8.54740945 0.32330826 16.06772407 -3 24 C-3.66 24.33 -4.32 24.66 -5 25 C-5.33 24.01 -5.66 23.02 -6 22 C-6.66 21.67 -7.32 21.34 -8 21 C-7.67 20.34 -7.34 19.68 -7 19 C-6.34 19 -5.68 19 -5 19 C-5.66 18.34 -6.32 17.68 -7 17 C-5.35 17 -3.7 17 -2 17 C-3.9254644 14.7763932 -3.9254644 14.7763932 -7 14 C-7.33 15.32 -7.66 16.64 -8 18 C-8.99 17.67 -9.98 17.34 -11 17 C-10.01 12.71 -9.02 8.42 -8 4 C-7.34 4.33 -6.68 4.66 -6 5 C-5.319375 5.165 -4.63875 5.33 -3.9375 5.5 C-2 6 -2 6 -1 7 C-0.67 4.69 -0.34 2.38 0 0 Z " fill="#065560" transform="translate(104,54)"/>
<path d="M0 0 C0.33 0.99 0.66 1.98 1 3 C3.01508358 3.73323796 3.01508358 3.73323796 5 4 C5 4.66 5 5.32 5 6 C5.66 6.33 6.32 6.66 7 7 C5.35 7 3.7 7 2 7 C2.66 7.66 3.32 8.32 4 9 C4 9.99 4 10.98 4 12 C4.79664063 12.13277344 5.59328125 12.26554687 6.4140625 12.40234375 C9.6015625 12.93359375 9.6015625 12.93359375 12.7890625 13.46484375 C14.37847656 13.72974609 14.37847656 13.72974609 16 14 C18 14.33333333 20 14.66666667 22 15 C22 15.33 22 15.66 22 16 C13.1968385 16.4626479 4.79223353 16.65840048 -3 12 C-5.1875 8.75 -5.1875 8.75 -6 6 C-5.34 5.34 -4.68 4.68 -4 4 C-3.34 4 -2.68 4 -2 4 C-2.99 3.01 -3.98 2.02 -5 1 C-3 0 -3 0 0 0 Z " fill="#194B2D" transform="translate(34,95)"/>
<path d="M0 0 C0.66 0.66 1.32 1.32 2 2 C1.7578125 4.0390625 1.7578125 4.0390625 1.125 6.625 C-0.42280658 14.07629963 -0.17092136 21.43198217 0 29 C-0.66 29.33 -1.32 29.66 -2 30 C-2.66 29.67 -3.32 29.34 -4 29 C-4 27.68 -4 26.36 -4 25 C-4.66 25 -5.32 25 -6 25 C-6.09688221 19.55306686 -6.12862175 14.36095333 -5 9 C-4.01 8.67 -3.02 8.34 -2 8 C-1.7834375 6.576875 -1.7834375 6.576875 -1.5625 5.125 C-1 2 -1 2 0 0 Z " fill="#417F97" transform="translate(9,36)"/>
<path d="M0 0 C0.33 1.32 0.66 2.64 1 4 C1.598125 3.79375 2.19625 3.5875 2.8125 3.375 C5 3 5 3 8 5 C6.329375 5.2165625 6.329375 5.2165625 4.625 5.4375 C1.17857953 5.78372035 1.17857953 5.78372035 -1 7 C-1 7.66 -1 8.32 -1 9 C-0.071875 9.2165625 -0.071875 9.2165625 0.875 9.4375 C3 10 3 10 5 11 C5 12.98 5 14.96 5 17 C4.34 17 3.68 17 3 17 C2.67 17.99 2.34 18.98 2 20 C1.34 19.34 0.68 18.68 0 18 C-0.99 18 -1.98 18 -3 18 C-3 18.66 -3 19.32 -3 20 C-3.66 20 -4.32 20 -5 20 C-4.52432875 12.74601342 -2.70533406 6.73187777 0 0 Z " fill="#035C7E" transform="translate(13,34)"/>
<path d="M0 0 C0.66 0 1.32 0 2 0 C2 0.66 2 1.32 2 2 C1.34 2 0.68 2 0 2 C0.33 2.99 0.66 3.98 1 5 C-2.88209607 10.54585153 -2.88209607 10.54585153 -6 11.8125 C-6.66 11.874375 -7.32 11.93625 -8 12 C-8.9075 12.185625 -9.815 12.37125 -10.75 12.5625 C-11.4925 12.706875 -12.235 12.85125 -13 13 C-13.50423019 7.70558305 -12.18923033 5.18586481 -9 1 C-7.88625 1.20625 -6.7725 1.4125 -5.625 1.625 C-4.42875 1.74875 -3.2325 1.8725 -2 2 C-1.34 1.34 -0.68 0.68 0 0 Z " fill="#0B568E" transform="translate(27,25)"/>
<path d="M0 0 C2.8359375 0.64453125 2.8359375 0.64453125 6 2 C7.5390625 4.57421875 7.5390625 4.57421875 8.625 7.6875 C10.40201991 12.46647587 12.3374689 16.66106043 15 21 C13.25 21.75 13.25 21.75 11 22 C7.38644223 19.05535031 5.70491515 15.77056968 3.8125 11.5625 C3.30332031 10.45003906 2.79414062 9.33757812 2.26953125 8.19140625 C1.16676428 5.41921973 0.45559682 2.93667831 0 0 Z " fill="#4E8888" transform="translate(4,67)"/>
<path d="M0 0 C0.99 0 1.98 0 3 0 C3 0.99 3 1.98 3 3 C5.91652174 3.16681109 5.91652174 3.16681109 9 3 C9.66 2.34 10.32 1.68 11 1 C11 4.63 11 8.26 11 12 C9.02 12 7.04 12 5 12 C5 11.34 5 10.68 5 10 C6.65 10 8.3 10 10 10 C10 9.34 10 8.68 10 8 C7.69 8 5.38 8 3 8 C3 8.66 3 9.32 3 10 C2.01 10 1.02 10 0 10 C0 9.34 0 8.68 0 8 C-0.99 7.67 -1.98 7.34 -3 7 C-1.35 6.67 0.3 6.34 2 6 C-0.31 6.33 -2.62 6.66 -5 7 C-5.33 5.68 -5.66 4.36 -6 3 C-4.02 3 -2.04 3 0 3 C0 2.01 0 1.02 0 0 Z " fill="#2D6860" transform="translate(55,77)"/>
<path d="M0 0 C0.99 0.33 1.98 0.66 3 1 C5.8172532 1.25585549 8.61500719 1.46385012 11.4375 1.625 C12.20126953 1.6765625 12.96503906 1.728125 13.75195312 1.78125 C14.49251953 1.82507813 15.23308594 1.86890625 15.99609375 1.9140625 C16.66825928 1.9548291 17.3404248 1.9955957 18.03295898 2.03759766 C20.15716317 1.99699601 21.96433644 1.58794804 24 1 C23.34 2.98 22.68 4.96 22 7 C20.68 7 19.36 7 18 7 C17.67 6.34 17.34 5.68 17 5 C16.01 4.67 15.02 4.34 14 4 C14 4.66 14 5.32 14 6 C14.99 6 15.98 6 17 6 C17 6.66 17 7.32 17 8 C14.03 8 11.06 8 8 8 C7.67 7.34 7.34 6.68 7 6 C6.01 6.495 6.01 6.495 5 7 C5 5.68 5 4.36 5 3 C4.54625 3.495 4.0925 3.99 3.625 4.5 C2 6 2 6 0 6 C0 4.02 0 2.04 0 0 Z " fill="#548A68" transform="translate(43,96)"/>
<path d="M0 0 C-0.66 0.66 -1.32 1.32 -2 2 C-1.67 2.66 -1.34 3.32 -1 4 C-1.969375 4.12375 -2.93875 4.2475 -3.9375 4.375 C-5.4534375 4.684375 -5.4534375 4.684375 -7 5 C-7.33 5.66 -7.66 6.32 -8 7 C-10.0625 7.625 -10.0625 7.625 -12 8 C-12 8.66 -12 9.32 -12 10 C-14.97 9.505 -14.97 9.505 -18 9 C-18.34782609 2.73913043 -18.34782609 2.73913043 -16 0 C-10.38836906 -1.25777935 -5.64327349 -0.90695467 0 0 Z M-12 5 C-11 7 -11 7 -11 7 Z " fill="#396A88" transform="translate(38,44)"/>
<path d="M0 0 C7.92 0 15.84 0 24 0 C24.66 1.65 25.32 3.3 26 5 C17.09 5 8.18 5 -1 5 C-0.67 3.35 -0.34 1.7 0 0 Z M4 3 C4 3.33 4 3.66 4 4 C9.28 4 14.56 4 20 4 C20 3.67 20 3.34 20 3 C14.72 3 9.44 3 4 3 Z " fill="#4B8DAC" transform="translate(44,40)"/>
<path d="M0 0 C-0.33 0.66 -0.66 1.32 -1 2 C-1 4.36543716 -0.35237059 5.92304264 0.5 8.125 C0.7784375 8.84945313 1.056875 9.57390625 1.34375 10.3203125 C1.5603125 10.87460937 1.776875 11.42890625 2 12 C0.02 12.66 -1.96 13.32 -4 14 C-3.67 13.01 -3.34 12.02 -3 11 C-3.33 10.67 -3.66 10.34 -4 10 C-4.66 9.01 -5.32 8.02 -6 7 C-9.05429073 5.78715124 -9.05429073 5.78715124 -12 5 C-11.8125 2.625 -11.8125 2.625 -11 0 C-6.91941196 -2.68152928 -4.3289005 -1.81209788 0 0 Z " fill="#1063AC" transform="translate(79,10)"/>
<path d="M0 0 C0.99 0.33 1.98 0.66 3 1 C3.4021875 2.2375 3.4021875 2.2375 3.8125 3.5 C6.76680047 12.20741191 11.93349034 17.74000342 20 22 C25.1385934 24.38059129 30.49884716 25.72294666 36 27 C36 27.33 36 27.66 36 28 C27.86044134 28.61430631 20.89320955 26.86460589 14.25 21.9765625 C8.15876134 16.66485736 2.41923394 10.91749289 0 3 C0 2.01 0 1.02 0 0 Z " fill="#1F473B" transform="translate(20,66)"/>
<path d="M0 0 C0.66 0.33 1.32 0.66 2 1 C0.68 2.32 -0.64 3.64 -2 5 C-1.34 5.33 -0.68 5.66 0 6 C-5.14929804 9.46482022 -10.04400528 12.18291686 -16 14 C-16.99 13.67 -17.98 13.34 -19 13 C-19 12.67 -19 12.34 -19 12 C-19.66 12 -20.32 12 -21 12 C-21 11.34 -21 10.68 -21 10 C-19.90300781 9.61328125 -18.80601563 9.2265625 -17.67578125 8.828125 C-16.22117153 8.30258858 -14.7667545 7.7765186 -13.3125 7.25 C-12.2306543 6.87101562 -12.2306543 6.87101562 -11.12695312 6.484375 C-6.77209634 4.89355974 -3.48804718 3.16469764 0 0 Z " fill="#8EB69A" transform="translate(87,94)"/>
<path d="M0 0 C9.24 0 18.48 0 28 0 C27.67 0.99 27.34 1.98 27 3 C18.09 3 9.18 3 0 3 C0 2.01 0 1.02 0 0 Z " fill="#759FA0" transform="translate(44,68)"/>
<path d="M0 0 C15.754243 5.09947468 15.754243 5.09947468 19.1875 11.0625 C19.455625 11.701875 19.72375 12.34125 20 13 C20.66 13.61875 21.32 14.2375 22 14.875 C24.38990085 17.41426965 25.09157735 19.66911696 26 23 C21.4857225 19.33133644 17.49848894 15.66465192 14 11 C14 10.34 14 9.68 14 9 C11.64561267 7.57055055 10.51967567 6.91338739 7.75 7.375 C6.88375 7.684375 6.88375 7.684375 6 8 C5.67 7.34 5.34 6.68 5 6 C5.33 5.67 5.66 5.34 6 5 C4.02 4.01 2.04 3.02 0 2 C0 1.34 0 0.68 0 0 Z " fill="#418ACA" transform="translate(71,5)"/>
<path d="M0 0 C1.32 0 2.64 0 4 0 C3.7525 0.66 3.505 1.32 3.25 2 C2.92612572 5.88649142 4.21248545 7.90213522 6.08984375 11.23046875 C7 13 7 13 7 15 C7.66 15 8.32 15 9 15 C9.33 15.99 9.66 16.98 10 18 C11.49985609 19.66710346 11.49985609 19.66710346 13 21 C12.67 21.66 12.34 22.32 12 23 C12.39938767 25.09821215 12.39938767 25.09821215 13 27 C10.6875 27.25 10.6875 27.25 8 27 C6.125 25.1875 6.125 25.1875 5 23 C5.33 22.01 5.66 21.02 6 20 C6.66 19.67 7.32 19.34 8 19 C7.59007812 18.33613281 7.18015625 17.67226562 6.7578125 16.98828125 C5.94957031 15.66376953 5.94957031 15.66376953 5.125 14.3125 C4.59132813 13.44238281 4.05765625 12.57226562 3.5078125 11.67578125 C1.17112547 7.5290698 0 4.81269897 0 0 Z " fill="#0B4939" transform="translate(10,68)"/>
<path d="M0 0 C0.66 0 1.32 0 2 0 C2 0.99 2 1.98 2 3 C2.680625 3.185625 3.36125 3.37125 4.0625 3.5625 C10.80885074 6.86390568 15.77127014 13.31288166 19 20 C19.8125 23.5 19.8125 23.5 20 26 C19.43796875 25.84660156 18.8759375 25.69320312 18.296875 25.53515625 C15.94161122 24.98639581 13.65451896 24.68502401 11.25 24.4375 C10.45078125 24.35371094 9.6515625 24.26992188 8.828125 24.18359375 C7.92320313 24.09271484 7.92320313 24.09271484 7 24 C7.33 23.34 7.66 22.68 8 22 C10.97 22.33 13.94 22.66 17 23 C13.38011048 15.64345033 9.29995222 9.47018532 2.0625 5.3125 C1.381875 4.879375 0.70125 4.44625 0 4 C0 2.68 0 1.36 0 0 Z " fill="#1B507F" transform="translate(73,21)"/>
<path d="M0 0 C2.96175123 0.61277612 4.38058783 1.25372522 7 3 C2.25 5 2.25 5 0 5 C-7.62835917 9.69041003 -13.39339919 15.78496483 -17 24 C-17.66 24 -18.32 24 -19 24 C-16.91721212 15.66884849 -11.03858016 8.78913702 -4 4 C-3.34 4 -2.68 4 -2 4 C-2 3.34 -2 2.68 -2 2 C-1.34 2 -0.68 2 0 2 C0 1.34 0 0.68 0 0 Z " fill="#1C527D" transform="translate(40,20)"/>
<path d="M0 0 C-3.63143682 4.62182868 -8.41598524 6.6411523 -14 8 C-19.03080797 8.31534937 -23.9626117 8.24179464 -29 8 C-29 7.67 -29 7.34 -29 7 C-27.87722656 6.75765625 -26.75445312 6.5153125 -25.59765625 6.265625 C-15.88231591 4.19840452 -15.88231591 4.19840452 -6.625 0.6875 C-3 -1 -3 -1 0 0 Z " fill="#255437" transform="translate(86,103)"/>
<path d="M0 0 C2.29633824 3.44450737 2.54016485 5.93812283 3 10 C-0.625 13 -0.625 13 -4 13 C-4.33 13.99 -4.66 14.98 -5 16 C-5.99 11.38 -6.98 6.76 -8 2 C-6.35 1.67 -4.7 1.34 -3 1 C-3 1.66 -3 2.32 -3 3 C-3.99 3 -4.98 3 -6 3 C-6 3.66 -6 4.32 -6 5 C-4.68 4.67 -3.36 4.34 -2 4 C-1.67 4.66 -1.34 5.32 -1 6 C-2.32 6 -3.64 6 -5 6 C-5 6.66 -5 7.32 -5 8 C-3.35 7.67 -1.7 7.34 0 7 C-0.185625 6.030625 -0.37125 5.06125 -0.5625 4.0625 C-0.706875 3.051875 -0.85125 2.04125 -1 1 C-0.67 0.67 -0.34 0.34 0 0 Z " fill="#0B587D" transform="translate(101,38)"/>
<path d="M0 0 C24.255 0.495 24.255 0.495 49 1 C49 1.33 49 1.66 49 2 C43.79739556 3.06268208 38.79846644 3.14525305 33.515625 3.1328125 C32.61882019 3.13376923 31.72201538 3.13472595 30.79803467 3.13571167 C28.91206797 3.13638953 27.02609888 3.13456284 25.14013672 3.13037109 C22.24571555 3.12499204 19.35144778 3.1303423 16.45703125 3.13671875 C14.62239549 3.13605839 12.78775983 3.13477811 10.953125 3.1328125 C9.65160492 3.13584885 9.65160492 3.13584885 8.3237915 3.13894653 C2.22995108 3.11497554 2.22995108 3.11497554 0 2 C0 1.34 0 0.68 0 0 Z " fill="#2B5054" transform="translate(32,72)"/>
<path d="M0 0 C8.43757159 0.159473 14.81090665 1.49379294 22 6 C22.7321875 6.44601563 23.464375 6.89203125 24.21875 7.3515625 C26.47707584 9.44150439 26.6753198 10.99670818 27 14 C26.443125 13.61328125 25.88625 13.2265625 25.3125 12.828125 C18.16102459 7.94772624 11.42723996 4.10680999 3 2 C2.34 2.66 1.68 3.32 1 4 C0.34 3.34 -0.32 2.68 -1 2 C-0.67 1.34 -0.34 0.68 0 0 Z " fill="#105AA1" transform="translate(65,3)"/>
<path d="M0 0 C1.28970703 0.32097656 1.28970703 0.32097656 2.60546875 0.6484375 C3.45753906 0.88820312 4.30960938 1.12796875 5.1875 1.375 C6.47720703 1.72691406 6.47720703 1.72691406 7.79296875 2.0859375 C10 3 10 3 12 6 C11.34 6 10.68 6 10 6 C9.67 6.66 9.34 7.32 9 8 C8.67 7.34 8.34 6.68 8 6 C2.60847968 3.69515045 -2.24743766 2.39463377 -8 4 C-10.6875 4.6875 -10.6875 4.6875 -13 5 C-13.99 4.34 -14.98 3.68 -16 3 C-14.27709395 2.29695778 -12.54632534 1.61316509 -10.8125 0.9375 C-9.84957031 0.55464844 -8.88664062 0.17179687 -7.89453125 -0.22265625 C-4.69652372 -1.08150038 -3.14513418 -0.90360204 0 0 Z " fill="#285E7F" transform="translate(60,35)"/>
<path d="M0 0 C0.99 0.66 1.98 1.32 3 2 C2.67 6.29 2.34 10.58 2 15 C1.01 15 0.02 15 -1 15 C-0.67 14.34 -0.34 13.68 0 13 C-1.65 13.33 -3.3 13.66 -5 14 C-6.125 7.375 -6.125 7.375 -5 4 C-3.68352881 3.30062468 -2.34977849 2.63270867 -1 2 C-0.67 1.34 -0.34 0.68 0 0 Z M-2 7 C-2.33 8.32 -2.66 9.64 -3 11 C-1.68 11 -0.36 11 1 11 C1 9.68 1 8.36 1 7 C0.01 7 -0.98 7 -2 7 Z " fill="#0A5C79" transform="translate(102,47)"/>
<path d="M0 0 C3.36030641 5.98429069 2.41396621 12.00720172 0.875 18.5 C-0.74787743 24.05855118 -3.5088367 28.42420344 -7 33 C-7.33 32.01 -7.66 31.02 -8 30 C-6.6234948 27.38862357 -4.99219198 25.02025867 -3.34765625 22.5703125 C-1.85576387 19.72490616 -1.82817645 18.1553052 -2 15 C-1.67 14.01 -1.34 13.02 -1 12 C-0.95833998 9.6670386 -0.95833998 7.3329614 -1 5 C-1 2 -1 2 0 0 Z " fill="#2E6170" transform="translate(93,48)"/>
<path d="M0 0 C1.171875 1.64453125 1.171875 1.64453125 2 4 C0.953125 6.76171875 0.953125 6.76171875 -0.75 9.6875 C-1.30171875 10.66074219 -1.8534375 11.63398437 -2.421875 12.63671875 C-4 15 -4 15 -6 16 C-7.32423403 19.81690986 -8.08782022 23.36167056 -8.5 27.375 C-8.665 28.57125 -8.83 29.7675 -9 31 C-9.66 31.33 -10.32 31.66 -11 32 C-10.7042587 20.33166126 -6.65998508 9.5142644 0 0 Z " fill="#25648A" transform="translate(11,23)"/>
<path d="M0 0 C0 0.66 0 1.32 0 2 C1.32 2.33 2.64 2.66 4 3 C-9.53 3 -23.06 3 -37 3 C-37 2.67 -37 2.34 -37 2 C-32.05212486 1.71444343 -27.10420778 1.42962883 -22.15625 1.14550781 C-20.47231892 1.04870776 -18.78839958 0.95170342 -17.10449219 0.85449219 C-14.68687939 0.71495976 -12.26922563 0.57615727 -9.8515625 0.4375 C-8.71867294 0.37187866 -8.71867294 0.37187866 -7.56289673 0.30493164 C-2.22774341 0 -2.22774341 0 0 0 Z " fill="#508589" transform="translate(73,70)"/>
<path d="M0 0 C0 3.94225075 -1.57320753 5.2390888 -4.00390625 8.18359375 C-5.23612019 9.97112003 -5.23612019 9.97112003 -4.59375 12.08203125 C-4.3978125 12.71496094 -4.201875 13.34789062 -4 14 C-4.9375 16.25 -4.9375 16.25 -6 18 C-6.99 18 -7.98 18 -9 18 C-9.33 20.31 -9.66 22.62 -10 25 C-10.99 25 -11.98 25 -13 25 C-12.55976503 15.09471319 -6.5630786 7.03186993 0 0 Z " fill="#64A6D2" transform="translate(18,20)"/>
<path d="M0 0 C0.33 0.66 0.66 1.32 1 2 C3.02463255 2.65213292 3.02463255 2.65213292 5 3 C5 3.66 5 4.32 5 5 C3.4609375 6.26171875 3.4609375 6.26171875 1.375 7.6875 C-2.75381549 10.66289195 -5.8783437 14.00333398 -9 18 C-9.33 17.34 -9.66 16.68 -10 16 C-9.51789062 15.45730469 -9.03578125 14.91460937 -8.5390625 14.35546875 C-7.90742188 13.64003906 -7.27578125 12.92460937 -6.625 12.1875 C-5.68527344 11.12595703 -5.68527344 11.12595703 -4.7265625 10.04296875 C-2.859401 7.91196181 -2.859401 7.91196181 -1 5 C-3.64 5 -6.28 5 -9 5 C-8.34 3.68 -7.68 2.36 -7 1 C-6.67 1.66 -6.34 2.32 -6 3 C-5.566875 2.505 -5.13375 2.01 -4.6875 1.5 C-3 0 -3 0 0 0 Z M-11 5 C-10.34 5 -9.68 5 -9 5 C-9 5.66 -9 6.32 -9 7 C-9.66 7 -10.32 7 -11 7 C-11 6.34 -11 5.68 -11 5 Z " fill="#3883C0" transform="translate(33,19)"/>
<path d="M0 0 C0 0.33 0 0.66 0 1 C-2.31 1 -4.62 1 -7 1 C-7 4.3 -7 7.6 -7 11 C-5.02 11 -3.04 11 -1 11 C-1.33 11.99 -1.66 12.98 -2 14 C-4.64 14 -7.28 14 -10 14 C-10 9.71 -10 5.42 -10 1 C-6.78548731 -0.60725635 -3.56387464 -0.05748185 0 0 Z " fill="#36655C" transform="translate(55,76)"/>
<path d="M0 0 C3.33333333 0 6.66666667 0 10 0 C10 2.64 10 5.28 10 8 C9.01 7.67 8.02 7.34 7 7 C6.67 6.34 6.34 5.68 6 5 C3.525 6.485 3.525 6.485 1 8 C0.34 7.34 -0.32 6.68 -1 6 C-0.625 2.875 -0.625 2.875 0 0 Z " fill="#2A628C" transform="translate(59,25)"/>
<path d="M0 0 C2.31 0 4.62 0 7 0 C6.85831863 1.43791516 6.71148957 2.8753237 6.5625 4.3125 C6.48128906 5.11300781 6.40007813 5.91351563 6.31640625 6.73828125 C6 9 6 9 5 12 C4.01 12 3.02 12 2 12 C1.34 8.04 0.68 4.08 0 0 Z " fill="#5385A1" transform="translate(53,46)"/>
<path d="M0 0 C1.41102191 2.68335364 2.47895376 5.29379775 3.375 8.1875 C4.71150213 12.34856849 6.41663735 16.22548326 8.328125 20.15234375 C8.54984375 20.76207031 8.7715625 21.37179688 9 22 C8.67 22.66 8.34 23.32 8 24 C3.01671309 19.87590049 1.29142359 14.17013493 0 8 C-0.12205329 5.32459184 -0.04467313 2.68038762 0 0 Z " fill="#144F4E" transform="translate(1,59)"/>
<path d="M0 0 C2.09153056 2.66249437 3.72725009 5.29380916 5.25 8.3125 C9.74046611 16.45146983 15.75405215 20.94247011 24 25 C21 26 21 26 18.9140625 24.9609375 C11.84818223 20.06546414 2.92382629 13.62096062 0.3984375 4.9296875 C0.125 3 0.125 3 0 0 Z " fill="#6AA197" transform="translate(19,67)"/>
<path d="M0 0 C1.98 0.99 1.98 0.99 4 2 C4.05407567 4.58361518 4.093707 7.16609255 4.125 9.75 C4.14175781 10.47960938 4.15851563 11.20921875 4.17578125 11.9609375 C4.21072239 15.8044624 4.17499684 18.74606772 2 22 C0.35171783 17.05515349 -0.12139835 13.00008578 -0.0625 7.8125 C-0.05798828 7.06291016 -0.05347656 6.31332031 -0.04882812 5.54101562 C-0.03706354 3.69397617 -0.01912865 1.84697787 0 0 Z " fill="#69A8B6" transform="translate(105,50)"/>
<path d="M0 0 C1.32 0 2.64 0 4 0 C4.18451025 10.55808656 4.18451025 10.55808656 3 15 C2.01 15 1.02 15 0 15 C0 10.05 0 5.1 0 0 Z " fill="#43738C" transform="translate(72,49)"/>
<path d="M0 0 C3.375 0.25 3.375 0.25 7 1 C8.4375 3.0625 8.4375 3.0625 9 5 C8.01 5.33 7.02 5.66 6 6 C7.32 6 8.64 6 10 6 C9.34 7.65 8.68 9.3 8 11 C7.34 11 6.68 11 6 11 C6 10.34 6 9.68 6 9 C5.34 9 4.68 9 4 9 C0 2.25 0 2.25 0 0 Z " fill="#2D6A63" transform="translate(13,74)"/>
<path d="M0 0 C0.99 0.33 1.98 0.66 3 1 C-5.15055442 6.75972512 -10.95329488 9.4018682 -21 9 C-18.48668425 6.48668425 -16.76564929 6.36155631 -13.3125 5.625 C-9.47993676 4.73349248 -6.28360074 3.83233737 -2.9375 1.75 C-1.968125 1.1725 -0.99875 0.595 0 0 Z " fill="#1F4D38" transform="translate(78,85)"/>
<path d="M0 0 C1.9375 0.8125 1.9375 0.8125 4 2 C4.33 2.99 4.66 3.98 5 5 C5.66 5 6.32 5 7 5 C6.67 5.99 6.34 6.98 6 8 C5.34 8 4.68 8 4 8 C3.67 8.66 3.34 9.32 3 10 C2.67 9.34 2.34 8.68 2 8 C1.34 8 0.68 8 0 8 C-0.103125 7.360625 -0.20625 6.72125 -0.3125 6.0625 C-0.539375 5.381875 -0.76625 4.70125 -1 4 C-1.99 3.67 -2.98 3.34 -4 3 C-2.68 2.01 -1.36 1.02 0 0 Z " fill="#276752" transform="translate(23,83)"/>
<path d="M0 0 C0.66 0.33 1.32 0.66 2 1 C1.01 2.485 1.01 2.485 0 4 C1.32 3.67 2.64 3.34 4 3 C3.67 3.99 3.34 4.98 3 6 C1.3125 6.5625 1.3125 6.5625 -1 7 C-3.00382009 7.65509503 -5.00458132 8.31974363 -7 9 C-7.33 7.68 -7.66 6.36 -8 5 C-5.45378681 2.99940392 -3.01962385 1.20784954 0 0 Z " fill="#4C8565" transform="translate(74,94)"/>
<path d="M0 0 C5 2 5 2 10 4 C10 6.31 10 8.62 10 11 C9.01 10.67 8.02 10.34 7 10 C7 9.34 7 8.68 7 8 C5.35 7.67 3.7 7.34 2 7 C1.34 4.69 0.68 2.38 0 0 Z " fill="#377052" transform="translate(32,91)"/>
<path d="M0 0 C0.66 1.32 1.32 2.64 2 4 C-6.261959 11.66742597 -6.261959 11.66742597 -11 13 C-11.33 12.01 -11.66 11.02 -12 10 C-11.30132812 9.52949219 -10.60265625 9.05898437 -9.8828125 8.57421875 C-8.97273438 7.95160156 -8.06265625 7.32898438 -7.125 6.6875 C-6.22007813 6.07261719 -5.31515625 5.45773438 -4.3828125 4.82421875 C-1.80028615 3.05086051 -1.80028615 3.05086051 0 0 Z " fill="#2A5D44" transform="translate(96,91)"/>
<path d="M0 0 C3.125 -0.1875 3.125 -0.1875 6 0 C5.01 1.485 5.01 1.485 4 3 C3.54860541 5.0492094 3.54860541 5.0492094 3.375 7.1875 C3.25125 8.445625 3.1275 9.70375 3 11 C1.35 11 -0.3 11 -2 11 C-2.25 3.375 -2.25 3.375 0 0 Z " fill="#3B7291" transform="translate(33,48)"/>
<path d="M0 0 C0.66 0 1.32 0 2 0 C2.12375 1.423125 2.12375 1.423125 2.25 2.875 C2.4975 3.90625 2.745 4.9375 3 6 C4.32 6.66 5.64 7.32 7 8 C-0.59 8 -8.18 8 -16 8 C-16 7.34 -16 6.68 -16 6 C-11.05 6.33 -6.1 6.66 -1 7 C-1 5.02 -1 3.04 -1 1 C-0.67 0.67 -0.34 0.34 0 0 Z " fill="#699AA3" transform="translate(63,59)"/>
<path d="M0 0 C-7.11389522 6.70387244 -7.11389522 6.70387244 -12 7 C-11.67 6.01 -11.34 5.02 -11 4 C-12.32 4.33 -13.64 4.66 -15 5 C-15 4.34 -15 3.68 -15 3 C-14.01 3 -13.02 3 -12 3 C-12 2.01 -12 1.02 -12 0 C-10.02 0.66 -8.04 1.32 -6 2 C-6 1.34 -6 0.68 -6 0 C-3 -1 -3 -1 0 0 Z " fill="#0E4D2E" transform="translate(89,93)"/>
<path d="M0 0 C0.66 0 1.32 0 2 0 C2 0.66 2 1.32 2 2 C1.34 2 0.68 2 0 2 C0.33 2.99 0.66 3.98 1 5 C-0.65 6.65 -2.3 8.3 -4 10 C-4.66 9.67 -5.32 9.34 -6 9 C-6.39171753 7.34608154 -6.72057545 5.67654729 -7 4 C-7.33 3.01 -7.66 2.02 -8 1 C-6.576875 1.309375 -6.576875 1.309375 -5.125 1.625 C-4.09375 1.74875 -3.0625 1.8725 -2 2 C-1.34 1.34 -0.68 0.68 0 0 Z " fill="#165E96" transform="translate(27,25)"/>
<path d="M0 0 C-3.02941494 1.76256869 -5.01887821 2.18565983 -8.5 2 C-14.48275652 1.8571282 -20.14167942 2.87262559 -26 4 C-25.67 3.34 -25.34 2.68 -25 2 C-16.57676002 -0.69306405 -8.69988183 -1.47365345 0 0 Z " fill="#0B5CAE" transform="translate(64,2)"/>
<path d="M0 0 C1.98 0 3.96 0 6 0 C4.50328459 4.49014624 2.16631659 8.47848764 -1 12 C-1.66 12 -2.32 12 -3 12 C-4.625 10 -4.625 10 -6 8 C-5.01 8 -4.02 8 -3 8 C-2.67 7.01 -2.34 6.02 -2 5 C-1.34 5 -0.68 5 0 5 C0 4.01 0 3.02 0 2 C0.99 2.66 1.98 3.32 3 4 C3 3.34 3 2.68 3 2 C2.01 1.67 1.02 1.34 0 1 C0 0.67 0 0.34 0 0 Z " fill="#094939" transform="translate(93,79)"/>
<path d="M0 0 C1.03238044 3.19892532 0.91495284 5.25361848 0.125 8.5 C-1.15609164 14.29953648 -1.61361579 20.08222072 -2 26 C-2.33 24.68 -2.66 23.36 -3 22 C-3.66 22 -4.32 22 -5 22 C-4.85433594 21.29875 -4.70867188 20.5975 -4.55859375 19.875 C-3.78890814 15.91354119 -3.20319833 11.92695367 -2.59765625 7.9375 C-2.01953982 5.09603887 -1.16374724 2.648864 0 0 Z " fill="#08537A" transform="translate(5,37)"/>
<path d="M0 0 C0.66 0 1.32 0 2 0 C2 0.99 2 1.98 2 3 C2.763125 3 3.52625 3 4.3125 3 C6.20833333 3 8.10416667 3 10 3 C9.67 4.32 9.34 5.64 9 7 C7.68 7 6.36 7 5 7 C4.67 7.66 4.34 8.32 4 9 C3.01 9 2.02 9 1 9 C1.33 7.68 1.66 6.36 2 5 C0.35 5 -1.3 5 -3 5 C-2.67 4.34 -2.34 3.68 -2 3 C-1.01 3 -0.02 3 1 3 C0.67 2.01 0.34 1.02 0 0 Z " fill="#1868B2" transform="translate(35,12)"/>
<path d="M0 0 C2.76544722 3.45680903 4.84921278 7.14341602 7 11 C5.25 11.75 5.25 11.75 3 12 C0.22666082 9.78132865 -0.86873442 8.39379675 -2 5 C-1.0625 2.3125 -1.0625 2.3125 0 0 Z " fill="#3B7765" transform="translate(12,77)"/>
<path d="M0 0 C1.32 0.66 2.64 1.32 4 2 C2.91332031 2.67095703 2.91332031 2.67095703 1.8046875 3.35546875 C-3.4321122 6.63021416 -8.38824804 9.88681582 -13 14 C-12.5225699 9.70312913 -10.13244022 7.79195759 -7 5 C-4.7070185 3.26246122 -2.37353013 1.62889323 0 0 Z " fill="#3D84C8" transform="translate(33,10)"/>
<path d="M0 0 C0.66 0.66 1.32 1.32 2 2 C1.7578125 4.6015625 1.7578125 4.6015625 1.125 7.625 C0.92132812 8.62789062 0.71765625 9.63078125 0.5078125 10.6640625 C0.34023437 11.43492188 0.17265625 12.20578125 0 13 C-0.99 13.33 -1.98 13.66 -3 14 C-3.66 13.67 -4.32 13.34 -5 13 C-5 11.68 -5 10.36 -5 9 C-4.01 8.67 -3.02 8.34 -2 8 C-1.7834375 6.576875 -1.7834375 6.576875 -1.5625 5.125 C-1 2 -1 2 0 0 Z " fill="#2C6E91" transform="translate(9,36)"/>
<path d="M0 0 C0.66 0.99 1.32 1.98 2 3 C-1.3 3.33 -4.6 3.66 -8 4 C-8 4.66 -8 5.32 -8 6 C-9.32 6 -10.64 6 -12 6 C-12.33 4.68 -12.66 3.36 -13 2 C-8.48894322 -0.25552839 -4.94884301 -0.40564287 0 0 Z " fill="#38626E" transform="translate(85,66)"/>
<path d="M0 0 C2.5147159 2.5147159 2.26048615 4.08613823 2.2734375 7.52148438 C2.26570313 8.23626953 2.25796875 8.95105469 2.25 9.6875 C2.25773437 10.38294922 2.26546875 11.07839844 2.2734375 11.79492188 C2.25568396 16.54843184 1.49071319 20.48645173 0 25 C-1.38018297 21.16615843 -0.565398 17.95778601 0 14 C-0.16371094 13.37609375 -0.32742187 12.7521875 -0.49609375 12.109375 C-1.11864675 9.5033392 -0.87677115 7.40384526 -0.5625 4.75 C-0.46066406 3.85796875 -0.35882813 2.9659375 -0.25390625 2.046875 C-0.17011719 1.37140625 -0.08632812 0.6959375 0 0 Z " fill="#2F707D" transform="translate(110,50)"/>
<path d="M0 0 C9.9 1.98 9.9 1.98 20 4 C20 4.33 20 4.66 20 5 C17.79194476 5.0544452 15.58349446 5.09299283 13.375 5.125 C12.14523438 5.14820312 10.91546875 5.17140625 9.6484375 5.1953125 C6.05683959 5.0030428 3.33338825 4.30258556 0 3 C0 2.01 0 1.02 0 0 Z " fill="#0F4322" transform="translate(36,106)"/>
<path d="M0 0 C1.98 0 3.96 0 6 0 C6 2.97 6 5.94 6 9 C4.68 8.67 3.36 8.34 2 8 C1.34 5.36 0.68 2.72 0 0 Z " fill="#5E8EA7" transform="translate(45,46)"/>
<path d="M0 0 C1.4370809 -0.05422947 2.87475462 -0.09289723 4.3125 -0.125 C5.11300781 -0.14820313 5.91351563 -0.17140625 6.73828125 -0.1953125 C9 0 9 0 12 2 C10.68 2 9.36 2 8 2 C8.33 2.99 8.66 3.98 9 5 C8.360625 4.814375 7.72125 4.62875 7.0625 4.4375 C6.0415625 4.2209375 6.0415625 4.2209375 5 4 C4.67 4.33 4.34 4.66 4 5 C2.32457024 4.71395102 0.65614657 4.38218767 -1 4 C-0.34 3.67 0.32 3.34 1 3 C0.67 2.01 0.34 1.02 0 0 Z " fill="#085BAC" transform="translate(54,8)"/>
<path d="M0 0 C0.99 0.33 1.98 0.66 3 1 C4.55853267 1.21803307 6.12182651 1.40366356 7.6875 1.5625 C8.89986328 1.68818359 8.89986328 1.68818359 10.13671875 1.81640625 C10.75160156 1.87699219 11.36648437 1.93757813 12 2 C11.67 2.99 11.34 3.98 11 5 C9.0625 5.625 9.0625 5.625 7 6 C6.01 6.495 6.01 6.495 5 7 C5 5.68 5 4.36 5 3 C4.54625 3.495 4.0925 3.99 3.625 4.5 C2 6 2 6 0 6 C0 4.02 0 2.04 0 0 Z " fill="#5B9271" transform="translate(43,96)"/>
<path d="M0 0 C4.26074654 0.4916246 7.14158857 2.99446445 10 6 C12.14698361 8.91306639 14.10611314 11.91739693 16 15 C15.01 15 14.02 15 13 15 C11.640625 13.4609375 11.640625 13.4609375 10.25 11.375 C7.64066825 7.68391011 4.84987228 4.93269075 1.3203125 2.12890625 C0.88460937 1.75636719 0.44890625 1.38382813 0 1 C0 0.67 0 0.34 0 0 Z " fill="#458ABE" transform="translate(76,23)"/>
<path d="M0 0 C1.39682559 3.82239436 0.64083517 6.78791269 -0.25 10.6875 C-0.50265625 11.84636719 -0.7553125 13.00523438 -1.015625 14.19921875 C-1.34046875 15.12347656 -1.6653125 16.04773438 -2 17 C-2.99 17.33 -3.98 17.66 -5 18 C-2.96875 2.96875 -2.96875 2.96875 0 0 Z " fill="#17524F" transform="translate(110,63)"/>
<path d="M0 0 C3.36591866 1.44253657 5.51047079 3.33264727 8 6 C7.67 6.66 7.34 7.32 7 8 C6.67 7.67 6.34 7.34 6 7 C5.67 7.66 5.34 8.32 5 9 C1.9375 9.625 1.9375 9.625 -1 10 C-1.66 9.01 -2.32 8.02 -3 7 C-2.34 7 -1.68 7 -1 7 C-0.34 6.34 0.32 5.68 1 5 C1.66 5 2.32 5 3 5 C2.01 4.67 1.02 4.34 0 4 C0 2.68 0 1.36 0 0 Z " fill="#075296" transform="translate(86,19)"/>
<path d="M0 0 C1.32 0 2.64 0 4 0 C3.67 1.98 3.34 3.96 3 6 C0.36 6 -2.28 6 -5 6 C-5.33 5.01 -5.66 4.02 -6 3 C-5.34 3 -4.68 3 -4 3 C-3.67 2.34 -3.34 1.68 -3 1 C-3 1.66 -3 2.32 -3 3 C-2.01 2.67 -1.02 2.34 0 2 C0 1.34 0 0.68 0 0 Z " fill="#2B76BB" transform="translate(62,10)"/>
<path d="M0 0 C-1.515625 1.984375 -1.515625 1.984375 -4 4 C-6.73682971 4.2911521 -9.03940039 4.38322418 -11.75 4.25 C-12.44738281 4.23195313 -13.14476562 4.21390625 -13.86328125 4.1953125 C-15.57611539 4.14838554 -17.28823824 4.07664605 -19 4 C-19 3.67 -19 3.34 -19 3 C-16.77228658 2.49356447 -14.54275924 1.9951038 -12.3125 1.5 C-10.45044922 1.08234375 -10.45044922 1.08234375 -8.55078125 0.65625 C-5.57601782 0.10645874 -3.00631398 -0.13795705 0 0 Z " fill="#0F4723" transform="translate(76,107)"/>
<path d="M0 0 C3.59634744 3.49359465 6.83451967 7.11098131 10 11 C7.73806201 10.515299 5.93034549 9.96312408 3.875 8.875 C2.946875 8.441875 2.946875 8.441875 2 8 C1.01 8.495 1.01 8.495 0 9 C0.66 7.35 1.32 5.7 2 4 C0.35 4.33 -1.3 4.66 -3 5 C-3.33 4.34 -3.66 3.68 -4 3 C-2.68 2.67 -1.36 2.34 0 2 C0 1.34 0 0.68 0 0 Z " fill="#0C4B3E" transform="translate(21,76)"/>
<path d="M0 0 C2.4375 0.8125 2.4375 0.8125 5 2 C5.33 2.99 5.66 3.98 6 5 C6.66 5 7.32 5 8 5 C9.54296875 6.64453125 9.54296875 6.64453125 11.1875 8.8125 C11.73792969 9.52019531 12.28835937 10.22789063 12.85546875 10.95703125 C13.42201172 11.96830078 13.42201172 11.96830078 14 13 C13.67 13.99 13.34 14.98 13 16 C12.34644531 15.14728516 12.34644531 15.14728516 11.6796875 14.27734375 C7.91405821 9.39506682 4.05314585 4.64628915 0 0 Z " fill="#73B5E9" transform="translate(88,15)"/>
<path d="M0 0 C0.9796875 -0.00257812 1.959375 -0.00515625 2.96875 -0.0078125 C5.5 0.125 5.5 0.125 7.5 1.125 C7.5 1.785 7.5 2.445 7.5 3.125 C4.2 3.125 0.9 3.125 -2.5 3.125 C-2.5 3.785 -2.5 4.445 -2.5 5.125 C-3.82 5.455 -5.14 5.785 -6.5 6.125 C-6.83 4.475 -7.16 2.825 -7.5 1.125 C-4.89080172 -0.17959914 -2.91057385 -0.0076594 0 0 Z " fill="#287BC4" transform="translate(55.5,2.875)"/>
<path d="M0 0 C0.66 0 1.32 0 2 0 C1.67 1.32 1.34 2.64 1 4 C1.99 4.33 2.98 4.66 4 5 C3.13375 5.0928125 3.13375 5.0928125 2.25 5.1875 C-0.88690987 6.32027301 -2.09167504 8.34197595 -4 11 C-4.99 10.67 -5.98 10.34 -7 10 C-5.88321917 8.3278148 -4.75633648 6.66237197 -3.625 5 C-2.99851562 4.071875 -2.37203125 3.14375 -1.7265625 2.1875 C-1.15679687 1.465625 -0.58703125 0.74375 0 0 Z " fill="#134F46" transform="translate(93,72)"/>
<path d="M0 0 C0.66 0 1.32 0 2 0 C2.061875 0.598125 2.12375 1.19625 2.1875 1.8125 C3.3236757 4.87143458 5.17330142 5.55041099 8 7 C7.34 7.66 6.68 8.32 6 9 C5.01 8.67 4.02 8.34 3 8 C2.67 8.33 2.34 8.66 2 9 C1.01 9.495 1.01 9.495 0 10 C0 6.7 0 3.4 0 0 Z " fill="#054E5E" transform="translate(8,54)"/>
<path d="M0 0 C3 3.75 3 3.75 3 6 C3.99 6.33 4.98 6.66 6 7 C5.67 8.98 5.34 10.96 5 13 C4.01 13.33 3.02 13.66 2 14 C1.66179834 12.4176994 1.32964061 10.83410625 1 9.25 C0.814375 8.36828125 0.62875 7.4865625 0.4375 6.578125 C0 4 0 4 0 0 Z " fill="#4C8197" transform="translate(45,48)"/>
<path d="M0 0 C2.31 0 4.62 0 7 0 C7 0.99 7 1.98 7 3 C3.25 4.125 3.25 4.125 1 3 C1.66 5.31 2.32 7.62 3 10 C2.01 10 1.02 10 0 10 C0 6.7 0 3.4 0 0 Z " fill="#064C42" transform="translate(48,77)"/>
<path d="M0 0 C0 2.97 0 5.94 0 9 C-0.99 9 -1.98 9 -3 9 C-2.67 8.34 -2.34 7.68 -2 7 C-3.65 7.33 -5.3 7.66 -7 8 C-6.74438677 5.6568787 -6.40729228 3.32156597 -6 1 C-4 0 -4 0 0 0 Z M-4 1 C-4.33 2.32 -4.66 3.64 -5 5 C-3.68 5 -2.36 5 -1 5 C-1 3.68 -1 2.36 -1 1 C-1.99 1 -2.98 1 -4 1 Z " fill="#327C8C" transform="translate(104,53)"/>
<path d="M0 0 C3.65882521 3.3621637 6.14420341 6.36050852 8 11 C7.67 11.66 7.34 12.32 7 13 C6.34 13 5.68 13 5 13 C0.59225513 4.738041 0.59225513 4.738041 0 0 Z " fill="#387BAB" transform="translate(95,23)"/>
<path d="M0 0 C1.32 0.33 2.64 0.66 4 1 C3.43628586 4.26954202 2.50037734 5.82575883 0 8 C-1.32 6.35 -2.64 4.7 -4 3 C-2.68 2.34 -1.36 1.68 0 1 C0 0.67 0 0.34 0 0 Z " fill="#306B54" transform="translate(82,89)"/>
<path d="M0 0 C4.95 0.33 9.9 0.66 15 1 C14.67 1.66 14.34 2.32 14 3 C12.04174127 3.02694851 10.08337774 3.04637218 8.125 3.0625 C7.03445312 3.07410156 5.94390625 3.08570312 4.8203125 3.09765625 C2 3 2 3 0 2 C0 1.34 0 0.68 0 0 Z " fill="#37575D" transform="translate(32,72)"/>
<path d="M0 0 C1.65 0.33 3.3 0.66 5 1 C5 1.99 5 2.98 5 4 C4.01 4.33 3.02 4.66 2 5 C2.33 5.66 2.66 6.32 3 7 C1 7.66666667 -1 8.33333333 -3 9 C-2.01 6.03 -1.02 3.06 0 0 Z " fill="#6CA7A7" transform="translate(97,67)"/>
<path d="M0 0 C3 3 3 3 3.29296875 5.48046875 C3.25816406 6.37378906 3.22335937 7.26710938 3.1875 8.1875 C3.16042969 9.08855469 3.13335937 9.98960938 3.10546875 10.91796875 C3.07066406 11.60503906 3.03585937 12.29210938 3 13 C3.99 13.33 4.98 13.66 6 14 C5.01 14.495 5.01 14.495 4 15 C3.34 14.67 2.68 14.34 2 14 C2 12.68 2 11.36 2 10 C1.34 10 0.68 10 0 10 C0 6.7 0 3.4 0 0 Z " fill="#296E82" transform="translate(3,51)"/>
<path d="M0 0 C2.97 0.495 2.97 0.495 6 1 C6 1.66 6 2.32 6 3 C5.34 3 4.68 3 4 3 C4 3.66 4 4.32 4 5 C4.99 4.67 5.98 4.34 7 4 C7 5.32 7 6.64 7 8 C6.34 8 5.68 8 5 8 C5 7.34 5 6.68 5 6 C3.02 5.34 1.04 4.68 -1 4 C-0.67 2.68 -0.34 1.36 0 0 Z " fill="#216C98" transform="translate(13,39)"/>
<path d="M0 0 C0.33 1.32 0.66 2.64 1 4 C1.598125 3.79375 2.19625 3.5875 2.8125 3.375 C5 3 5 3 8 5 C6.329375 5.2165625 6.329375 5.2165625 4.625 5.4375 C1.17857953 5.78372035 1.17857953 5.78372035 -1 7 C-2.13350534 9.01669827 -2.13350534 9.01669827 -3 11 C-2.53199289 6.94393835 -2.12046792 3.53411321 0 0 Z " fill="#0C5784" transform="translate(13,34)"/>
<path d="M0 0 C1.65 0.33 3.3 0.66 5 1 C5.33 1.99 5.66 2.98 6 4 C4.5625 6.1875 4.5625 6.1875 3 8 C1.68 7.67 0.36 7.34 -1 7 C-0.01 5.35 0.98 3.7 2 2 C1.34 2 0.68 2 0 2 C0 1.34 0 0.68 0 0 Z " fill="#205081" transform="translate(45,25)"/>
<path d="M0 0 C3.63 1.32 7.26 2.64 11 4 C11 4.99 11 5.98 11 7 C9.35 7.33 7.7 7.66 6 8 C5.67 7.34 5.34 6.68 5 6 C5.33 5.67 5.66 5.34 6 5 C4.02 4.01 2.04 3.02 0 2 C0 1.34 0 0.68 0 0 Z " fill="#2F7FC8" transform="translate(71,5)"/>
<path d="M0 0 C2.64 0.66 5.28 1.32 8 2 C8 2.99 8 3.98 8 5 C6.02 5.33 4.04 5.66 2 6 C2 5.34 2 4.68 2 4 C1.34 3.67 0.68 3.34 0 3 C0 2.01 0 1.02 0 0 Z " fill="#2F5D3E" transform="translate(36,101)"/>
<path d="M0 0 C2.79828356 0.38597015 3.8205884 0.80136573 5.75 2.9375 C7 5 7 5 7 7 C4.6875 7.25 4.6875 7.25 2 7 C0.125 5.1875 0.125 5.1875 -1 3 C-0.67 2.01 -0.34 1.02 0 0 Z " fill="#194A34" transform="translate(16,88)"/>
<path d="M0 0 C0.66 0 1.32 0 2 0 C4.125 4.625 4.125 4.625 3 8 C2.01 7.67 1.02 7.34 0 7 C-1.55853267 6.78196693 -3.12182651 6.59633644 -4.6875 6.4375 C-5.89986328 6.31181641 -5.89986328 6.31181641 -7.13671875 6.18359375 C-7.75160156 6.12300781 -8.36648437 6.06242187 -9 6 C-8.67 5.34 -8.34 4.68 -8 4 C-5.03 4.33 -2.06 4.66 1 5 C0.67 3.35 0.34 1.7 0 0 Z " fill="#245676" transform="translate(89,39)"/>
<path d="M0 0 C0.66 0 1.32 0 2 0 C2 0.66 2 1.32 2 2 C3.98 1.67 5.96 1.34 8 1 C4.9315153 3.97550031 3.53763669 4.96474513 -0.8125 5.25 C-1.864375 5.1675 -2.91625 5.085 -4 5 C-3.34 4.67 -2.68 4.34 -2 4 C-0.86649466 1.98330173 -0.86649466 1.98330173 0 0 Z " fill="#477755" transform="translate(64,104)"/>
<path d="M0 0 C0.6875 1.625 0.6875 1.625 1 4 C-0.4375 7.25 -0.4375 7.25 -2 10 C-3.32 8.68 -4.64 7.36 -6 6 C-5.67 5.34 -5.34 4.68 -5 4 C-4.34 4 -3.68 4 -3 4 C-3.66 3.34 -4.32 2.68 -5 2 C-3.35 2 -1.7 2 0 2 C0 1.34 0 0.68 0 0 Z " fill="#11504B" transform="translate(102,69)"/>
<path d="M0 0 C0.763125 0.474375 1.52625 0.94875 2.3125 1.4375 C4.96410548 3.10106097 4.96410548 3.10106097 8 4 C8 4.33 8 4.66 8 5 C3.71 5 -0.58 5 -5 5 C-4.01 4.01 -3.02 3.02 -2 2 C-1.34 2 -0.68 2 0 2 C0 1.34 0 0.68 0 0 Z " fill="#2E6372" transform="translate(30,62)"/>
<path d="M0 0 C1.98 0 3.96 0 6 0 C5 3 4 6 3 9 C2.34 9 1.68 9 1 9 C1.020625 8.071875 1.04125 7.14375 1.0625 6.1875 C1.15769604 2.97713989 1.15769604 2.97713989 0 0 Z " fill="#5E92A9" transform="translate(62,46)"/>
<path d="M0 0 C-1 3 -1 3 -3.25 4.25 C-6.28236729 5.07700926 -8.01120724 4.85394079 -11 4 C-3.77464789 -1.88732394 -3.77464789 -1.88732394 0 0 Z " fill="#1B5D9E" transform="translate(40,4)"/>
<path d="M0 0 C0.33 0 0.66 0 1 0 C1 3.63 1 7.26 1 11 C-0.98 11 -2.96 11 -5 11 C-5 10.34 -5 9.68 -5 9 C-3.35 9 -1.7 9 0 9 C0 7.68 0 6.36 0 5 C-0.99 4.67 -1.98 4.34 -3 4 C-3 3.34 -3 2.68 -3 2 C-2.34 2 -1.68 2 -1 2 C-0.67 1.34 -0.34 0.68 0 0 Z " fill="#478174" transform="translate(65,78)"/>
<path d="M0 0 C0.66 0.33 1.32 0.66 2 1 C1.67 2.32 1.34 3.64 1 5 C-0.32 5 -1.64 5 -3 5 C-2.34 5.33 -1.68 5.66 -1 6 C-1 6.66 -1 7.32 -1 8 C-3.475 7.01 -3.475 7.01 -6 6 C-5.1875 4.0625 -5.1875 4.0625 -4 2 C-3.01 1.67 -2.02 1.34 -1 1 C-0.67 0.67 -0.34 0.34 0 0 Z " fill="#418177" transform="translate(97,75)"/>
<path d="M0 0 C-3.98434396 2.65622931 -6.45331629 4.17509627 -11.3125 3.625 C-12.199375 3.41875 -13.08625 3.2125 -14 3 C-12.67661368 2.31379969 -11.34050052 1.65213539 -10 1 C-9.195625 0.608125 -8.39125 0.21625 -7.5625 -0.1875 C-4.61011137 -1.12362322 -2.94190428 -0.84054408 0 0 Z " fill="#36668A" transform="translate(58,36)"/>
<path d="M0 0 C2.4375 0.75 2.4375 0.75 5 2 C5.8125 4.125 5.8125 4.125 6 6 C5.34 6 4.68 6 4 6 C4 6.99 4 7.98 4 9 C2.68 8.34 1.36 7.68 0 7 C0.33 6.01 0.66 5.02 1 4 C0.61067144 1.85744207 0.61067144 1.85744207 0 0 Z " fill="#095191" transform="translate(79,17)"/>
<path d="M0 0 C2.50357861 0.8345262 4.66785852 1.79371992 7 3 C7 3.66 7 4.32 7 5 C4.03 5 1.06 5 -2 5 C-2 2 -2 2 0 0 Z " fill="#3E7551" transform="translate(53,99)"/>
<path d="M0 0 C0.66 0 1.32 0 2 0 C1.54300722 5.02692063 -0.99241748 8.14896261 -4 12 C-5 9 -5 9 -4.00390625 6.73828125 C-3.52824219 5.93777344 -3.05257812 5.13726562 -2.5625 4.3125 C-2.08941406 3.50425781 -1.61632812 2.69601563 -1.12890625 1.86328125 C-0.75636719 1.24839844 -0.38382812 0.63351563 0 0 Z " fill="#27524D" transform="translate(90,69)"/>
<path d="M0 0 C0.99 0 1.98 0 3 0 C3.33 0.99 3.66 1.98 4 3 C6.01508358 3.73323796 6.01508358 3.73323796 8 4 C8 4.66 8 5.32 8 6 C8.66 6.33 9.32 6.66 10 7 C5.24518354 6.42365861 2.02951788 4.44931479 -2 2 C-1.34 1.34 -0.68 0.68 0 0 Z " fill="#084626" transform="translate(31,95)"/>
<path d="M0 0 C0.66 0.66 1.32 1.32 2 2 C1.625 4.125 1.625 4.125 1 6 C-0.875 6.625 -0.875 6.625 -3 7 C-3.66 6.34 -4.32 5.68 -5 5 C-4.360625 4.731875 -3.72125 4.46375 -3.0625 4.1875 C-0.66868314 3.11332248 -0.66868314 3.11332248 0 0 Z " fill="#597E74" transform="translate(84,79)"/>
<path d="M0 0 C0.66 0.33 1.32 0.66 2 1 C0.73046875 2.49739583 -0.5390625 3.99479167 -1.80859375 5.4921875 C-3.0878152 7.00594079 -3.0878152 7.00594079 -4 9 C-4.99 8.67 -5.98 8.34 -7 8 C-5.50902342 4.2047869 -3.24299151 2.38957269 0 0 Z " fill="#0E4B37" transform="translate(86,83)"/>
<path d="M0 0 C-4.455 2.97 -4.455 2.97 -9 6 C-9.99 5.34 -10.98 4.68 -12 4 C-10.56988027 3.13353333 -9.13059381 2.28218171 -7.6875 1.4375 C-6.48673828 0.72400391 -6.48673828 0.72400391 -5.26171875 -0.00390625 C-3 -1 -3 -1 0 0 Z " fill="#295343" transform="translate(81,86)"/>
<path d="M0 0 C0.33 0.66 0.66 1.32 1 2 C-0.65 3.98 -2.3 5.96 -4 8 C-4.99 7.34 -5.98 6.68 -7 6 C-3.375 1.125 -3.375 1.125 0 0 Z " fill="#45786B" transform="translate(99,83)"/>
<path d="M0 0 C0.33 0 0.66 0 1 0 C1 3.3 1 6.6 1 10 C0.01 10 -0.98 10 -2 10 C-2 9.34 -2 8.68 -2 8 C-2.66 7.67 -3.32 7.34 -4 7 C-3.525625 6.5875 -3.05125 6.175 -2.5625 5.75 C-0.83733482 3.817815 -0.43415125 2.51807725 0 0 Z " fill="#446D7D" transform="translate(40,55)"/>
<path d="M0 0 C0.99 0 1.98 0 3 0 C4.31626692 3.61973402 5 6.09567131 5 10 C4.01 9.67 3.02 9.34 2 9 C1.26953125 6.93359375 1.26953125 6.93359375 0.8125 4.4375 C0.65394531 3.61121094 0.49539062 2.78492188 0.33203125 1.93359375 C0.16767578 0.97646484 0.16767578 0.97646484 0 0 Z " fill="#598996" transform="translate(63,56)"/>
<path d="M0 0 C-2 2 -2 2 -5.2578125 2.1953125 C-6.53398437 2.17210937 -7.81015625 2.14890625 -9.125 2.125 C-11.04699219 2.09792969 -11.04699219 2.09792969 -13.0078125 2.0703125 C-14.48894531 2.03550781 -14.48894531 2.03550781 -16 2 C-16 1.34 -16 0.68 -16 0 C-10.31302429 -0.91397824 -5.68697571 -0.91397824 0 0 Z " fill="#366580" transform="translate(38,44)"/>
<path d="M0 0 C1.12894876 0.93274109 2.25300876 1.87140122 3.375 2.8125 C4.00148438 3.33457031 4.62796875 3.85664063 5.2734375 4.39453125 C7 6 7 6 9 9 C7.68 9 6.36 9 5 9 C5 8.34 5 7.68 5 7 C4.34 7 3.68 7 3 7 C0 2.61538462 0 2.61538462 0 0 Z " fill="#13508B" transform="translate(91,13)"/>
<path d="M0 0 C0 3.93169105 -1.39419615 5.16427228 -4 8 C-4.66 8 -5.32 8 -6 8 C-6 7.34 -6 6.68 -6 6 C-6.66 5.67 -7.32 5.34 -8 5 C-7.4225 4.731875 -6.845 4.46375 -6.25 4.1875 C-3.9674132 2.98280141 -2.0262058 1.59201885 0 0 Z " fill="#93BEA8" transform="translate(98,87)"/>
<path d="M0 0 C2.31 0 4.62 0 7 0 C6.67 1.32 6.34 2.64 6 4 C3.03 3.505 3.03 3.505 0 3 C0 2.01 0 1.02 0 0 Z " fill="#084E45" transform="translate(58,77)"/>
<path d="M0 0 C2.99324263 1.0975223 3.84610901 1.67682892 5.25 4.625 C5.4975 5.40875 5.745 6.1925 6 7 C5.34 7.66 4.68 8.32 4 9 C2.68 7.68 1.36 6.36 0 5 C0.99 5 1.98 5 3 5 C2.01 3.35 1.02 1.7 0 0 Z " fill="#406B53" transform="translate(20,90)"/>
<path d="M0 0 C2.64465038 3.1254959 3.84414715 6.08788267 5 10 C2.13522966 8.94958421 1.16086774 8.29875437 -0.3125 5.5625 C-1 3 -1 3 0 0 Z " fill="#0F4943" transform="translate(5,73)"/>
<path d="M0 0 C0.66 0 1.32 0 2 0 C2.38922918 1.28745036 2.76098036 2.58019597 3.125 3.875 C3.33382813 4.59429687 3.54265625 5.31359375 3.7578125 6.0546875 C3.83773438 6.69664063 3.91765625 7.33859375 4 8 C3.34 8.66 2.68 9.32 2 10 C-0.09350689 6.5980513 -0.17942163 3.94727588 0 0 Z " fill="#357274" transform="translate(8,69)"/>
<path d="M0 0 C1.32 0 2.64 0 4 0 C3.79375 0.70125 3.5875 1.4025 3.375 2.125 C2.92149643 5.60186072 3.72459723 7.77398123 5 11 C4.34 11 3.68 11 3 11 C0 4.5 0 4.5 0 0 Z " fill="#074C4C" transform="translate(10,68)"/>
<path d="M0 0 C0.99 0.66 1.98 1.32 3 2 C3 3.32 3 4.64 3 6 C1.35 6.33 -0.3 6.66 -2 7 C-2 6.34 -2 5.68 -2 5 C-1.34 4.67 -0.68 4.34 0 4 C-0.99 4 -1.98 4 -3 4 C-3 3.34 -3 2.68 -3 2 C-2.01 2 -1.02 2 0 2 C0 1.34 0 0.68 0 0 Z " fill="#4690B7" transform="translate(98,39)"/>
<path d="M0 0 C0.66 0.99 1.32 1.98 2 3 C1.34 3.66 0.68 4.32 0 5 C0.99 5.33 1.98 5.66 3 6 C2.34 6.66 1.68 7.32 1 8 C-1.125 7.625 -1.125 7.625 -3 7 C-3 3 -3 3 -1.5 1.25 C-1.005 0.8375 -0.51 0.425 0 0 Z " fill="#327DAE" transform="translate(96,32)"/>
<path d="M0 0 C0.53625 0.37125 1.0725 0.7425 1.625 1.125 C0.965 1.125 0.305 1.125 -0.375 1.125 C-0.375 2.115 -0.375 3.105 -0.375 4.125 C-3.30379371 3.49740135 -5.73595629 2.53877341 -8.375 1.125 C-2.95961538 -1.09038462 -2.95961538 -1.09038462 0 0 Z " fill="#145A92" transform="translate(48.375,17.875)"/>
<path d="M0 0 C1.32 0.33 2.64 0.66 4 1 C4 1.66 4 2.32 4 3 C4.66 3 5.32 3 6 3 C5.67 3.99 5.34 4.98 5 6 C3.35 5.67 1.7 5.34 0 5 C0 3.35 0 1.7 0 0 Z " fill="#2473BE" transform="translate(67,4)"/>
<path d="M0 0 C1.65 1.65 3.3 3.3 5 5 C4.01 5 3.02 5 2 5 C1.67 6.32 1.34 7.64 1 9 C0.01 8.67 -0.98 8.34 -2 8 C-1.34 5.36 -0.68 2.72 0 0 Z " fill="#225D63" transform="translate(95,63)"/>
<path d="M0 0 C0.66 0 1.32 0 2 0 C2 0.66 2 1.32 2 2 C4.31 1.34 6.62 0.68 9 0 C8.67 1.65 8.34 3.3 8 5 C4.62537285 4.45276317 2.91765 3.9451 0 2 C0 1.34 0 0.68 0 0 Z " fill="#0857A2" transform="translate(67,12)"/>
<path d="M0 0 C2.31 0 4.62 0 7 0 C6.67 0.99 6.34 1.98 6 3 C2.37 3 -1.26 3 -5 3 C-5 2.67 -5 2.34 -5 2 C-3.35 1.67 -1.7 1.34 0 1 C0 0.67 0 0.34 0 0 Z " fill="#235D3A" transform="translate(56,105)"/>
<path d="M0 0 C2.475 0.495 2.475 0.495 5 1 C5.33 2.65 5.66 4.3 6 6 C5.01 6.495 5.01 6.495 4 7 C2.45428722 4.68143083 1.20381448 2.49361571 0 0 Z " fill="#547F90" transform="translate(86,62)"/>
<path d="M0 0 C0.33 0 0.66 0 1 0 C1.05395478 1.62463842 1.09277195 3.24978541 1.125 4.875 C1.14820313 5.77992187 1.17140625 6.68484375 1.1953125 7.6171875 C1 10 1 10 -1 12 C-2.42857143 3.42857143 -2.42857143 3.42857143 0 0 Z " fill="#266776" transform="translate(19,57)"/>
<path d="M0 0 C0.99 0.33 1.98 0.66 3 1 C3 2.98 3 4.96 3 7 C2.01 7.33 1.02 7.66 0 8 C0 5.36 0 2.72 0 0 Z " fill="#4D8099" transform="translate(72,49)"/>
<path d="M0 0 C0.75 1.5625 0.75 1.5625 1 4 C-0.13084437 6.50286409 -1.52139516 8.67007722 -3 11 C-3.66 11 -4.32 11 -5 11 C-3.77472971 6.94718288 -2.30119506 3.55639236 0 0 Z " fill="#1B4F74" transform="translate(26,33)"/>
<path d="M0 0 C1.2065625 0.0309375 1.2065625 0.0309375 2.4375 0.0625 C2.4375 0.7225 2.4375 1.3825 2.4375 2.0625 C1.7775 2.0625 1.1175 2.0625 0.4375 2.0625 C0.7675 3.7125 1.0975 5.3625 1.4375 7.0625 C0.7775 7.0625 0.1175 7.0625 -0.5625 7.0625 C-1.5525 5.0825 -2.5425 3.1025 -3.5625 1.0625 C-2.5625 0.0625 -2.5625 0.0625 0 0 Z " fill="#166195" transform="translate(92.5625,32.9375)"/>
<path d="M0 0 C0.66 0.33 1.32 0.66 2 1 C2 1.99 2 2.98 2 4 C1.34 4 0.68 4 0 4 C0.33 4.99 0.66 5.98 1 7 C-0.32 7.33 -1.64 7.66 -3 8 C-3 6.68 -3 5.36 -3 4 C-2.34 4 -1.68 4 -1 4 C-0.67 2.68 -0.34 1.36 0 0 Z " fill="#196397" transform="translate(17,30)"/>
<path d="M0 0 C1.98 0.66 3.96 1.32 6 2 C6 2.99 6 3.98 6 5 C3.69 4.34 1.38 3.68 -1 3 C-0.67 2.01 -0.34 1.02 0 0 Z " fill="#39628A" transform="translate(66,20)"/>
<path d="M0 0 C2.96175123 0.61277612 4.38058783 1.25372522 7 3 C4.75 4.1875 4.75 4.1875 2 5 C-0.3125 3.625 -0.3125 3.625 -2 2 C-1.34 2 -0.68 2 0 2 C0 1.34 0 0.68 0 0 Z " fill="#265883" transform="translate(40,20)"/>
<path d="M0 0 C5.875 2.75 5.875 2.75 7 5 C6.01 5.33 5.02 5.66 4 6 C1.3125 4.0625 1.3125 4.0625 -1 2 C-0.67 1.34 -0.34 0.68 0 0 Z " fill="#2469AF" transform="translate(80,11)"/>
<path d="M0 0 C1.75 0.0625 1.75 0.0625 4 1 C5.59501537 3.24164322 6.74543018 5.53566643 8 8 C7.01 8.495 7.01 8.495 6 9 C4 6 2 3 0 0 Z " fill="#1A4C72" transform="translate(82,31)"/>
<path d="M0 0 C1.423125 0.2784375 1.423125 0.2784375 2.875 0.5625 C5.89868793 1.28686632 5.89868793 1.28686632 8 0 C8.33 1.65 8.66 3.3 9 5 C6.03 4.01 3.06 3.02 0 2 C0 1.34 0 0.68 0 0 Z " fill="#2672BB" transform="translate(66,15)"/>
<path d="M0 0 C2.9375 0.375 2.9375 0.375 6 1 C6.33 1.66 6.66 2.32 7 3 C4.36 3.33 1.72 3.66 -1 4 C-0.67 2.68 -0.34 1.36 0 0 Z " fill="#1165B2" transform="translate(39,10)"/>
<path d="M0 0 C0.33 1.32 0.66 2.64 1 4 C-0.98 4.33 -2.96 4.66 -5 5 C-5 4.01 -5 3.02 -5 2 C-2 0 -2 0 0 0 Z " fill="#2D6C72" transform="translate(17,68)"/>
<path d="M0 0 C1.80411967 2.75924185 2.0127245 3.88972103 1.625 7.25 C1.41875 8.1575 1.2125 9.065 1 10 C0.34 9.67 -0.32 9.34 -1 9 C-1.09765625 2.84765625 -1.09765625 2.84765625 -1 1 C-0.67 0.67 -0.34 0.34 0 0 Z " fill="#30768A" transform="translate(18,52)"/>
<path d="M0 0 C1.98 0 3.96 0 6 0 C6 1.98 6 3.96 6 6 C5.34 4.68 4.68 3.36 4 2 C3.01 2.33 2.02 2.66 1 3 C0.67 2.01 0.34 1.02 0 0 Z " fill="#5F99B9" transform="translate(45,46)"/>
<path d="M0 0 C1.2375 0.1546875 1.2375 0.1546875 2.5 0.3125 C3.16 1.3025 3.82 2.2925 4.5 3.3125 C3.84 3.3125 3.18 3.3125 2.5 3.3125 C2.17 3.9725 1.84 4.6325 1.5 5.3125 C1.17 4.6525 0.84 3.9925 0.5 3.3125 C-2.02733235 2.65694881 -2.02733235 2.65694881 -4.5 2.3125 C-2.5 0.3125 -2.5 0.3125 0 0 Z " fill="#316886" transform="translate(67.5,37.6875)"/>
<path d="M0 0 C0.33 0.99 0.66 1.98 1 3 C0.360625 2.814375 -0.27875 2.62875 -0.9375 2.4375 C-1.9584375 2.2209375 -1.9584375 2.2209375 -3 2 C-3.33 2.33 -3.66 2.66 -4 3 C-5.67542976 2.71395102 -7.34385343 2.38218767 -9 2 C-5.5647952 -0.29013653 -4.014669 -0.17842973 0 0 Z " fill="#07559B" transform="translate(62,10)"/>
<path d="M0 0 C5.75 1.75 5.75 1.75 8 4 C7.01 4.495 7.01 4.495 6 5 C3.64018187 4.06421005 1.30368736 3.06652192 -1 2 C-0.67 1.34 -0.34 0.68 0 0 Z " fill="#27513F" transform="translate(38,88)"/>
<path d="M0 0 C2.97 1.98 2.97 1.98 6 4 C5.34 4.66 4.68 5.32 4 6 C1.525 5.01 1.525 5.01 -1 4 C-0.67 2.68 -0.34 1.36 0 0 Z " fill="#236255" transform="translate(13,83)"/>
<path d="M0 0 C2.29632557 4.43956276 3.20238143 7.05687635 2 12 C-0.60018816 8.09971775 -0.15085514 4.52565431 0 0 Z " fill="#1E535A" transform="translate(1,59)"/>
<path d="M0 0 C0.66 0 1.32 0 2 0 C2 2.97 2 5.94 2 9 C1.67 7.68 1.34 6.36 1 5 C0.34 5 -0.32 5 -1 5 C-0.67 3.35 -0.34 1.7 0 0 Z " fill="#074D6A" transform="translate(1,54)"/>
<path d="M0 0 C0.66 0 1.32 0 2 0 C2 2.97 2 5.94 2 9 C-1 6 -1 6 -1.25 3.375 C-1 1 -1 1 0 0 Z " fill="#206382" transform="translate(18,47)"/>
<path d="M0 0 C0.66 0.66 1.32 1.32 2 2 C0.37660195 3.70884005 -1.29319053 5.37446717 -3 7 C-3.66 7 -4.32 7 -5 7 C-5 6.34 -5 5.68 -5 5 C-4.34 5 -3.68 5 -3 5 C-2.67 3.68 -2.34 2.36 -2 1 C-1.34 1.33 -0.68 1.66 0 2 C0 1.34 0 0.68 0 0 Z " fill="#0D5C98" transform="translate(32,22)"/>
<path d="M0 0 C0.66 0.33 1.32 0.66 2 1 C0.625 2.5 0.625 2.5 -1 4 C-1.66 4 -2.32 4 -3 4 C-3.33 4.99 -3.66 5.98 -4 7 C-4.66 6.67 -5.32 6.34 -6 6 C-5.67 4.68 -5.34 3.36 -5 2 C-4.360625 1.855625 -3.72125 1.71125 -3.0625 1.5625 C-1.02454854 1.18992819 -1.02454854 1.18992819 0 0 Z " fill="#2B70AF" transform="translate(24,16)"/>
<path d="M0 0 C0.66 0.33 1.32 0.66 2 1 C0.515 3.475 0.515 3.475 -1 6 C-2.32 5.67 -3.64 5.34 -5 5 C-3.35 3.35 -1.7 1.7 0 0 Z " fill="#17558E" transform="translate(19,14)"/>
<path d="M0 0 C1.32 0.33 2.64 0.66 4 1 C4 2.32 4 3.64 4 5 C2.68 5 1.36 5 0 5 C0 3.35 0 1.7 0 0 Z " fill="#1C69B5" transform="translate(45,4)"/>
<path d="M0 0 C1.32 0 2.64 0 4 0 C3.34 1.32 2.68 2.64 2 4 C1.01 4 0.02 4 -1 4 C-0.67 2.68 -0.34 1.36 0 0 Z " fill="#2F7447" transform="translate(67,98)"/>
<path d="M0 0 C1.14926266 0.95421808 2.29430541 1.91352045 3.4375 2.875 C4.07558594 3.40867187 4.71367187 3.94234375 5.37109375 4.4921875 C7 6 7 6 8 8 C4.11137013 6.73882275 2.10624401 5.54735833 0 2 C0 1.34 0 0.68 0 0 Z " fill="#63998C" transform="translate(24,78)"/>
<path d="M0 0 C0.99 0.33 1.98 0.66 3 1 C3.33 3.31 3.66 5.62 4 8 C3.34 8 2.68 8 2 8 C0.74335022 5.09399739 0 3.20395416 0 0 Z " fill="#1C5255" transform="translate(20,66)"/>
<path d="M0 0 C1.65 0 3.3 0 5 0 C4.67 1.98 4.34 3.96 4 6 C3.34 6 2.68 6 2 6 C1.34 4.02 0.68 2.04 0 0 Z " fill="#6396B0" transform="translate(54,46)"/>
<path d="M0 0 C0.66 0 1.32 0 2 0 C2 0.66 2 1.32 2 2 C1.34 2 0.68 2 0 2 C0.33 2.99 0.66 3.98 1 5 C-0.65 5.33 -2.3 5.66 -4 6 C-2.84826645 3.53199953 -1.95216435 1.95216435 0 0 Z " fill="#236CA3" transform="translate(27,25)"/>
<path d="M0 0 C1.32 1.32 2.64 2.64 4 4 C0.125 6 0.125 6 -1 6 C-1.042721 4.33388095 -1.04063832 2.66617115 -1 1 C-0.67 0.67 -0.34 0.34 0 0 Z " fill="#116099" transform="translate(94,26)"/>
<path d="M0 0 C1.875 0.125 1.875 0.125 4 1 C5.25 4.0625 5.25 4.0625 6 7 C3.95880212 5.38405168 1.95927063 3.7143618 0 2 C0 1.34 0 0.68 0 0 Z " fill="#539AD0" transform="translate(91,21)"/>
</svg>
